<svg id="mermaid-svg" width="100%" xmlns="http://www.w3.org/2000/svg" class="flowchart" style="max-width: 1294.265625px;" viewBox="0 0 1294.265625 1179" role="graphics-document document" aria-roledescription="flowchart-v2" xmlns:xlink="http://www.w3.org/1999/xlink"><style xmlns="http://www.w3.org/1999/xhtml">@import url("https://cdnjs.cloudflare.com/ajax/libs/font-awesome/6.7.2/css/all.min.css");</style><style>#mermaid-svg{font-family:"trebuchet ms",verdana,arial,sans-serif;font-size:16px;fill:#333;}@keyframes edge-animation-frame{from{stroke-dashoffset:0;}}@keyframes dash{to{stroke-dashoffset:0;}}#mermaid-svg .edge-animation-slow{stroke-dasharray:9,5!important;stroke-dashoffset:900;animation:dash 50s linear infinite;stroke-linecap:round;}#mermaid-svg .edge-animation-fast{stroke-dasharray:9,5!important;stroke-dashoffset:900;animation:dash 20s linear infinite;stroke-linecap:round;}#mermaid-svg .error-icon{fill:#552222;}#mermaid-svg .error-text{fill:#552222;stroke:#552222;}#mermaid-svg .edge-thickness-normal{stroke-width:1px;}#mermaid-svg .edge-thickness-thick{stroke-width:3.5px;}#mermaid-svg .edge-pattern-solid{stroke-dasharray:0;}#mermaid-svg .edge-thickness-invisible{stroke-width:0;fill:none;}#mermaid-svg .edge-pattern-dashed{stroke-dasharray:3;}#mermaid-svg .edge-pattern-dotted{stroke-dasharray:2;}#mermaid-svg .marker{fill:#333333;stroke:#333333;}#mermaid-svg .marker.cross{stroke:#333333;}#mermaid-svg svg{font-family:"trebuchet ms",verdana,arial,sans-serif;font-size:16px;}#mermaid-svg p{margin:0;}#mermaid-svg .label{font-family:"trebuchet ms",verdana,arial,sans-serif;color:#333;}#mermaid-svg .cluster-label text{fill:#333;}#mermaid-svg .cluster-label span{color:#333;}#mermaid-svg .cluster-label span p{background-color:transparent;}#mermaid-svg .label text,#mermaid-svg span{fill:#333;color:#333;}#mermaid-svg .node rect,#mermaid-svg .node circle,#mermaid-svg .node ellipse,#mermaid-svg .node polygon,#mermaid-svg .node path{fill:#ECECFF;stroke:#9370DB;stroke-width:1px;}#mermaid-svg .rough-node .label text,#mermaid-svg .node .label text,#mermaid-svg .image-shape .label,#mermaid-svg .icon-shape .label{text-anchor:middle;}#mermaid-svg .node .katex path{fill:#000;stroke:#000;stroke-width:1px;}#mermaid-svg .rough-node .label,#mermaid-svg .node .label,#mermaid-svg .image-shape .label,#mermaid-svg .icon-shape .label{text-align:center;}#mermaid-svg .node.clickable{cursor:pointer;}#mermaid-svg .root .anchor path{fill:#333333!important;stroke-width:0;stroke:#333333;}#mermaid-svg .arrowheadPath{fill:#333333;}#mermaid-svg .edgePath .path{stroke:#333333;stroke-width:2.0px;}#mermaid-svg .flowchart-link{stroke:#333333;fill:none;}#mermaid-svg .edgeLabel{background-color:rgba(232,232,232, 0.8);text-align:center;}#mermaid-svg .edgeLabel p{background-color:rgba(232,232,232, 0.8);}#mermaid-svg .edgeLabel rect{opacity:0.5;background-color:rgba(232,232,232, 0.8);fill:rgba(232,232,232, 0.8);}#mermaid-svg .labelBkg{background-color:rgba(232, 232, 232, 0.5);}#mermaid-svg .cluster rect{fill:#ffffde;stroke:#aaaa33;stroke-width:1px;}#mermaid-svg .cluster text{fill:#333;}#mermaid-svg .cluster span{color:#333;}#mermaid-svg div.mermaidTooltip{position:absolute;text-align:center;max-width:200px;padding:2px;font-family:"trebuchet ms",verdana,arial,sans-serif;font-size:12px;background:hsl(80, 100%, 96.2745098039%);border:1px solid #aaaa33;border-radius:2px;pointer-events:none;z-index:100;}#mermaid-svg .flowchartTitleText{text-anchor:middle;font-size:18px;fill:#333;}#mermaid-svg rect.text{fill:none;stroke-width:0;}#mermaid-svg .icon-shape,#mermaid-svg .image-shape{background-color:rgba(232,232,232, 0.8);text-align:center;}#mermaid-svg .icon-shape p,#mermaid-svg .image-shape p{background-color:rgba(232,232,232, 0.8);padding:2px;}#mermaid-svg .icon-shape rect,#mermaid-svg .image-shape rect{opacity:0.5;background-color:rgba(232,232,232, 0.8);fill:rgba(232,232,232, 0.8);}#mermaid-svg .label-icon{display:inline-block;height:1em;overflow:visible;vertical-align:-0.125em;}#mermaid-svg .node .label-icon path{fill:currentColor;stroke:revert;stroke-width:revert;}#mermaid-svg :root{--mermaid-font-family:"trebuchet ms",verdana,arial,sans-serif;}</style><g><marker id="mermaid-svg_flowchart-v2-pointEnd" class="marker flowchart-v2" viewBox="0 0 10 10" refX="5" refY="5" markerUnits="userSpaceOnUse" markerWidth="8" markerHeight="8" orient="auto"><path d="M 0 0 L 10 5 L 0 10 z" class="arrowMarkerPath" style="stroke-width: 1; stroke-dasharray: 1, 0;"/></marker><marker id="mermaid-svg_flowchart-v2-pointStart" class="marker flowchart-v2" viewBox="0 0 10 10" refX="4.5" refY="5" markerUnits="userSpaceOnUse" markerWidth="8" markerHeight="8" orient="auto"><path d="M 0 5 L 10 10 L 10 0 z" class="arrowMarkerPath" style="stroke-width: 1; stroke-dasharray: 1, 0;"/></marker><marker id="mermaid-svg_flowchart-v2-circleEnd" class="marker flowchart-v2" viewBox="0 0 10 10" refX="11" refY="5" markerUnits="userSpaceOnUse" markerWidth="11" markerHeight="11" orient="auto"><circle cx="5" cy="5" r="5" class="arrowMarkerPath" style="stroke-width: 1; stroke-dasharray: 1, 0;"/></marker><marker id="mermaid-svg_flowchart-v2-circleStart" class="marker flowchart-v2" viewBox="0 0 10 10" refX="-1" refY="5" markerUnits="userSpaceOnUse" markerWidth="11" markerHeight="11" orient="auto"><circle cx="5" cy="5" r="5" class="arrowMarkerPath" style="stroke-width: 1; stroke-dasharray: 1, 0;"/></marker><marker id="mermaid-svg_flowchart-v2-crossEnd" class="marker cross flowchart-v2" viewBox="0 0 11 11" refX="12" refY="5.2" markerUnits="userSpaceOnUse" markerWidth="11" markerHeight="11" orient="auto"><path d="M 1,1 l 9,9 M 10,1 l -9,9" class="arrowMarkerPath" style="stroke-width: 2; stroke-dasharray: 1, 0;"/></marker><marker id="mermaid-svg_flowchart-v2-crossStart" class="marker cross flowchart-v2" viewBox="0 0 11 11" refX="-1" refY="5.2" markerUnits="userSpaceOnUse" markerWidth="11" markerHeight="11" orient="auto"><path d="M 1,1 l 9,9 M 10,1 l -9,9" class="arrowMarkerPath" style="stroke-width: 2; stroke-dasharray: 1, 0;"/></marker><g class="root"><g class="clusters"><g class="cluster " id="OpenCTI" data-look="classic"><rect style="" x="321.875" y="8" width="964.390625" height="1153"/><g class="cluster-label " transform="translate(771.609375, 8)"><foreignObject width="64.921875" height="24"><div xmlns="http://www.w3.org/1999/xhtml" style="display: table-cell; white-space: nowrap; line-height: 1.5; max-width: 200px; text-align: center;"><span class="nodeLabel "><p>OpenCTI</p></span></div></foreignObject></g></g><g class="cluster " id="CyberBlindSpotAPI" data-look="classic"><rect style="" x="8" y="18" width="263.875" height="1153"/><g class="cluster-label " transform="translate(71.453125, 18)"><foreignObject width="136.96875" height="24"><div xmlns="http://www.w3.org/1999/xhtml" style="display: table-cell; white-space: nowrap; line-height: 1.5; max-width: 200px; text-align: center;"><span class="nodeLabel "><p>CyberBlindSpotAPI</p></span></div></foreignObject></g></g><g class="cluster " id="Other" data-look="classic"><rect style="" x="346.875" y="28" width="310" height="342"/><g class="cluster-label " transform="translate(481.8671875, 28)"><foreignObject width="40.015625" height="24"><div xmlns="http://www.w3.org/1999/xhtml" style="display: table-cell; white-space: nowrap; line-height: 1.5; max-width: 200px; text-align: center;"><span class="nodeLabel "><p>Other</p></span></div></foreignObject></g></g><g class="cluster " id="Observables" data-look="classic"><rect style="" x="773.59375" y="339" width="487.671875" height="741"/><g class="cluster-label " transform="translate(972.515625, 339)"><foreignObject width="89.828125" height="24"><div xmlns="http://www.w3.org/1999/xhtml" style="display: table-cell; white-space: nowrap; line-height: 1.5; max-width: 200px; text-align: center;"><span class="nodeLabel "><p>Observables</p></span></div></foreignObject></g></g><g class="cluster " id="DomainObjects" data-look="classic"><rect style="" x="346.875" y="523" width="310" height="491"/><g class="cluster-label " transform="translate(447.1875, 523)"><foreignObject width="109.375" height="24"><div xmlns="http://www.w3.org/1999/xhtml" style="display: table-cell; white-space: nowrap; line-height: 1.5; max-width: 200px; text-align: center;"><span class="nodeLabel "><p>DomainObjects</p></span></div></foreignObject></g></g></g><g class="edgePaths"><path d="M149.287,231L169.719,290C190.15,349,231.012,467,255.61,526C280.208,585,288.542,585,296.875,585C305.208,585,313.542,585,321.875,585C330.208,585,338.542,585,355.092,585C371.643,585,396.411,585,408.796,585L421.18,585" id="L_CBSIncidents_CaseIncident_0" class=" edge-thickness-thick edge-pattern-solid edge-thickness-normal edge-pattern-solid flowchart-link" style=";" data-edge="true" data-et="edge" data-id="L_CBSIncidents_CaseIncident_0" data-points="W3sieCI6MTQ5LjI4NzQwMTU3NDgwMzE0LCJ5IjoyMzF9LHsieCI6MjcxLjg3NSwieSI6NTg1fSx7IngiOjI5Ni44NzUsInkiOjU4NX0seyJ4IjozMjEuODc1LCJ5Ijo1ODV9LHsieCI6MzQ2Ljg3NSwieSI6NTg1fSx7IngiOjQyNS4xNzk2ODc1LCJ5Ijo1ODV9XQ==" marker-end="url(#mermaid-svg_flowchart-v2-pointEnd)"/><path d="M201.961,204L213.613,204C225.266,204,248.57,204,264.389,204C280.208,204,288.542,204,296.875,204C305.208,204,313.542,204,321.875,204C330.208,204,338.542,204,351.832,204C365.122,204,383.37,204,392.493,204L401.617,204" id="L_CBSIncidents_ExtRef_0" class=" edge-thickness-thick edge-pattern-solid edge-thickness-normal edge-pattern-solid flowchart-link" style=";" data-edge="true" data-et="edge" data-id="L_CBSIncidents_ExtRef_0" data-points="W3sieCI6MjAxLjk2MDkzNzUsInkiOjIwNH0seyJ4IjoyNzEuODc1LCJ5IjoyMDR9LHsieCI6Mjk2Ljg3NSwieSI6MjA0fSx7IngiOjMyMS44NzUsInkiOjIwNH0seyJ4IjozNDYuODc1LCJ5IjoyMDR9LHsieCI6NDA1LjYxNzE4NzUsInkiOjIwNH1d" marker-end="url(#mermaid-svg_flowchart-v2-pointEnd)"/><path d="M219.742,817L228.431,817C237.12,817,254.497,817,267.353,817C280.208,817,288.542,817,296.875,817C305.208,817,313.542,817,321.875,817C330.208,817,338.542,817,357.836,817C377.13,817,407.385,817,422.513,817L437.641,817" id="L_CBSMalware_MalwareObj_0" class=" edge-thickness-thick edge-pattern-solid edge-thickness-normal edge-pattern-solid flowchart-link" style=";" data-edge="true" data-et="edge" data-id="L_CBSMalware_MalwareObj_0" data-points="W3sieCI6MjE5Ljc0MjE4NzUsInkiOjgxN30seyJ4IjoyNzEuODc1LCJ5Ijo4MTd9LHsieCI6Mjk2Ljg3NSwieSI6ODE3fSx7IngiOjMyMS44NzUsInkiOjgxN30seyJ4IjozNDYuODc1LCJ5Ijo4MTd9LHsieCI6NDQxLjY0MDYyNSwieSI6ODE3fV0=" marker-end="url(#mermaid-svg_flowchart-v2-pointEnd)"/><path d="M148.28,790L168.879,723.333C189.478,656.667,230.677,523.333,255.443,456.667C280.208,390,288.542,390,296.875,390C305.208,390,313.542,390,321.875,390C330.208,390,338.542,390,368.542,390C398.542,390,450.208,390,501.875,390C553.542,390,605.208,390,640.768,390C676.328,390,695.781,390,715.234,390C734.688,390,754.141,390,781.259,390C808.378,390,843.161,390,884.466,390C925.771,390,973.596,390,1019.036,454.201C1064.475,518.403,1107.528,646.805,1129.055,711.006L1150.582,775.208" id="L_CBSMalware_IPv4_0" class=" edge-thickness-thick edge-pattern-solid edge-thickness-normal edge-pattern-solid flowchart-link" style=";" data-edge="true" data-et="edge" data-id="L_CBSMalware_IPv4_0" data-points="W3sieCI6MTQ4LjI4MDE1MjIyNDgyNDM1LCJ5Ijo3OTB9LHsieCI6MjcxLjg3NSwieSI6MzkwfSx7IngiOjI5Ni44NzUsInkiOjM5MH0seyJ4IjozMjEuODc1LCJ5IjozOTB9LHsieCI6MzQ2Ljg3NSwieSI6MzkwfSx7IngiOjUwMS44NzUsInkiOjM5MH0seyJ4Ijo2NTYuODc1LCJ5IjozOTB9LHsieCI6NzE1LjIzNDM3NSwieSI6MzkwfSx7IngiOjc3My41OTM3NSwieSI6MzkwfSx7IngiOjg3Ny45NDUzMTI1LCJ5IjozOTB9LHsieCI6MTAyMS40MjE4NzUsInkiOjM5MH0seyJ4IjoxMTUxLjg1MzE3NzU4NDEzNDUsInkiOjc3OX1d" marker-end="url(#mermaid-svg_flowchart-v2-pointEnd)"/><path d="M154.968,844L174.453,879C193.937,914,232.906,984,256.557,1019C280.208,1054,288.542,1054,296.875,1054C305.208,1054,313.542,1054,321.875,1054C330.208,1054,338.542,1054,368.542,1054C398.542,1054,450.208,1054,501.875,1054C553.542,1054,605.208,1054,640.768,1039.5C676.328,1025,695.781,996,715.234,981.5C734.688,967,754.141,967,767.585,968.283C781.029,969.565,788.465,972.13,792.183,973.413L795.9,974.695" id="L_CBSMalware_Domain_0" class=" edge-thickness-thick edge-pattern-solid edge-thickness-normal edge-pattern-solid flowchart-link" style=";" data-edge="true" data-et="edge" data-id="L_CBSMalware_Domain_0" data-points="W3sieCI6MTU0Ljk2ODM1NDQzMDM3OTc1LCJ5Ijo4NDR9LHsieCI6MjcxLjg3NSwieSI6MTA1NH0seyJ4IjoyOTYuODc1LCJ5IjoxMDU0fSx7IngiOjMyMS44NzUsInkiOjEwNTR9LHsieCI6MzQ2Ljg3NSwieSI6MTA1NH0seyJ4Ijo1MDEuODc1LCJ5IjoxMDU0fSx7IngiOjY1Ni44NzUsInkiOjEwNTR9LHsieCI6NzE1LjIzNDM3NSwieSI6OTY3fSx7IngiOjc3My41OTM3NSwieSI6OTY3fSx7IngiOjc5OS42ODE2NDA2MjUsInkiOjk3Nn1d" marker-end="url(#mermaid-svg_flowchart-v2-pointEnd)"/><path d="M149.166,790L169.618,730.167C190.069,670.333,230.972,550.667,255.59,490.833C280.208,431,288.542,431,296.875,431C305.208,431,313.542,431,321.875,431C330.208,431,338.542,431,368.542,431C398.542,431,450.208,431,501.875,431C553.542,431,605.208,431,640.768,431C676.328,431,695.781,431,715.234,431C734.688,431,754.141,431,771.266,434.545C788.392,438.091,803.19,445.181,810.589,448.726L817.988,452.272" id="L_CBSMalware_Email_0" class=" edge-thickness-thick edge-pattern-solid edge-thickness-normal edge-pattern-solid flowchart-link" style=";" data-edge="true" data-et="edge" data-id="L_CBSMalware_Email_0" data-points="W3sieCI6MTQ5LjE2NjI4ODg2MDEwMzYzLCJ5Ijo3OTB9LHsieCI6MjcxLjg3NSwieSI6NDMxfSx7IngiOjI5Ni44NzUsInkiOjQzMX0seyJ4IjozMjEuODc1LCJ5Ijo0MzF9LHsieCI6MzQ2Ljg3NSwieSI6NDMxfSx7IngiOjUwMS44NzUsInkiOjQzMX0seyJ4Ijo2NTYuODc1LCJ5Ijo0MzF9LHsieCI6NzE1LjIzNDM3NSwieSI6NDMxfSx7IngiOjc3My41OTM3NSwieSI6NDMxfSx7IngiOjgyMS41OTU0Njg3NSwieSI6NDU0fV0=" marker-end="url(#mermaid-svg_flowchart-v2-pointEnd)"/><path d="M562.109,817L577.904,817C593.698,817,625.286,817,650.807,817C676.328,817,695.781,817,715.234,817C734.688,817,754.141,817,781.259,817C808.378,817,843.161,817,884.466,817C925.771,817,973.596,817,1007.532,816.21C1041.468,815.419,1061.513,813.838,1071.536,813.048L1081.559,812.257" id="L_MalwareObj_IPv4_0" class=" edge-thickness-normal edge-pattern-dotted edge-thickness-normal edge-pattern-solid flowchart-link" style=";" data-edge="true" data-et="edge" data-id="L_MalwareObj_IPv4_0" data-points="W3sieCI6NTYyLjEwOTM3NSwieSI6ODE3fSx7IngiOjY1Ni44NzUsInkiOjgxN30seyJ4Ijo3MTUuMjM0Mzc1LCJ5Ijo4MTd9LHsieCI6NzczLjU5Mzc1LCJ5Ijo4MTd9LHsieCI6ODc3Ljk0NTMxMjUsInkiOjgxN30seyJ4IjoxMDIxLjQyMTg3NSwieSI6ODE3fSx7IngiOjEwODUuNTQ2ODc1LCJ5Ijo4MTEuOTQyOTgxOTY0ODI1OH1d" marker-end="url(#mermaid-svg_flowchart-v2-pointEnd)"/><path d="M157.929,530L176.92,558.5C195.911,587,233.893,644,257.051,672.5C280.208,701,288.542,701,296.875,701C305.208,701,313.542,701,321.875,701C330.208,701,338.542,701,346.208,701C353.875,701,360.875,701,364.375,701L367.875,701" id="L_CBSCreds_IndicatorCred_0" class=" edge-thickness-thick edge-pattern-solid edge-thickness-normal edge-pattern-solid flowchart-link" style=";" data-edge="true" data-et="edge" data-id="L_CBSCreds_IndicatorCred_0" data-points="W3sieCI6MTU3LjkyODk3NzI3MjcyNzI4LCJ5Ijo1MzB9LHsieCI6MjcxLjg3NSwieSI6NzAxfSx7IngiOjI5Ni44NzUsInkiOjcwMX0seyJ4IjozMjEuODc1LCJ5Ijo3MDF9LHsieCI6MzQ2Ljg3NSwieSI6NzAxfSx7IngiOjM3MS44NzUsInkiOjcwMX1d" marker-end="url(#mermaid-svg_flowchart-v2-pointEnd)"/><path d="M246.875,503L251.042,503C255.208,503,263.542,503,271.875,503C280.208,503,288.542,503,296.875,503C305.208,503,313.542,503,321.875,503C330.208,503,338.542,503,368.542,503C398.542,503,450.208,503,501.875,503C553.542,503,605.208,503,640.768,510.667C676.328,518.333,695.781,533.667,715.234,541.333C734.688,549,754.141,549,771.805,553.031C789.469,557.063,805.344,565.126,813.281,569.157L821.219,573.189" id="L_CBSCreds_UserAccount_0" class=" edge-thickness-thick edge-pattern-solid edge-thickness-normal edge-pattern-solid flowchart-link" style=";" data-edge="true" data-et="edge" data-id="L_CBSCreds_UserAccount_0" data-points="W3sieCI6MjQ2Ljg3NSwieSI6NTAzfSx7IngiOjI3MS44NzUsInkiOjUwM30seyJ4IjoyOTYuODc1LCJ5Ijo1MDN9LHsieCI6MzIxLjg3NSwieSI6NTAzfSx7IngiOjM0Ni44NzUsInkiOjUwM30seyJ4Ijo1MDEuODc1LCJ5Ijo1MDN9LHsieCI6NjU2Ljg3NSwieSI6NTAzfSx7IngiOjcxNS4yMzQzNzUsInkiOjU0OX0seyJ4Ijo3NzMuNTkzNzUsInkiOjU0OX0seyJ4Ijo4MjQuNzg1MDgyNTQ3MTY5OCwieSI6NTc1fV0=" marker-end="url(#mermaid-svg_flowchart-v2-pointEnd)"/><path d="M224.754,476L232.608,473.5C240.461,471,256.168,466,268.188,463.5C280.208,461,288.542,461,296.875,461C305.208,461,313.542,461,321.875,461C330.208,461,338.542,461,368.542,461C398.542,461,450.208,461,501.875,461C553.542,461,605.208,461,640.768,461C676.328,461,695.781,461,715.234,461C734.688,461,754.141,461,767.379,461.673C780.618,462.346,787.641,463.692,791.153,464.365L794.665,465.039" id="L_CBSCreds_Email_0" class=" edge-thickness-thick edge-pattern-solid edge-thickness-normal edge-pattern-solid flowchart-link" style=";" data-edge="true" data-et="edge" data-id="L_CBSCreds_Email_0" data-points="W3sieCI6MjI0Ljc1NDQ2NDI4NTcxNDI4LCJ5Ijo0NzZ9LHsieCI6MjcxLjg3NSwieSI6NDYxfSx7IngiOjI5Ni44NzUsInkiOjQ2MX0seyJ4IjozMjEuODc1LCJ5Ijo0NjF9LHsieCI6MzQ2Ljg3NSwieSI6NDYxfSx7IngiOjUwMS44NzUsInkiOjQ2MX0seyJ4Ijo2NTYuODc1LCJ5Ijo0NjF9LHsieCI6NzE1LjIzNDM3NSwieSI6NDYxfSx7IngiOjc3My41OTM3NSwieSI6NDYxfSx7IngiOjc5OC41OTM3NSwieSI6NDY1Ljc5MTQ5NTA5NjIwNDI0fV0=" marker-end="url(#mermaid-svg_flowchart-v2-pointEnd)"/><path d="M146.176,530L167.126,620.667C188.076,711.333,229.975,892.667,255.092,983.333C280.208,1074,288.542,1074,296.875,1074C305.208,1074,313.542,1074,321.875,1074C330.208,1074,338.542,1074,368.542,1074C398.542,1074,450.208,1074,501.875,1074C553.542,1074,605.208,1074,640.768,1059.5C676.328,1045,695.781,1016,715.234,1001.5C734.688,987,754.141,987,767.449,987.549C780.758,988.098,787.921,989.197,791.503,989.746L795.085,990.295" id="L_CBSCreds_Domain_0" class=" edge-thickness-thick edge-pattern-solid edge-thickness-normal edge-pattern-solid flowchart-link" style=";" data-edge="true" data-et="edge" data-id="L_CBSCreds_Domain_0" data-points="W3sieCI6MTQ2LjE3NjIyNTkxOTQzOTYsInkiOjUzMH0seyJ4IjoyNzEuODc1LCJ5IjoxMDc0fSx7IngiOjI5Ni44NzUsInkiOjEwNzR9LHsieCI6MzIxLjg3NSwieSI6MTA3NH0seyJ4IjozNDYuODc1LCJ5IjoxMDc0fSx7IngiOjUwMS44NzUsInkiOjEwNzR9LHsieCI6NjU2Ljg3NSwieSI6MTA3NH0seyJ4Ijo3MTUuMjM0Mzc1LCJ5Ijo5ODd9LHsieCI6NzczLjU5Mzc1LCJ5Ijo5ODd9LHsieCI6Nzk5LjAzOTA2MjUsInkiOjk5MC45MDE0NzQ4ODIwODQ0fV0=" marker-end="url(#mermaid-svg_flowchart-v2-pointEnd)"/><path d="M148.339,476L168.928,409.833C189.518,343.667,230.696,211.333,255.452,145.167C280.208,79,288.542,79,296.875,79C305.208,79,313.542,79,321.875,79C330.208,79,338.542,79,360.06,80.231C381.579,81.463,416.283,83.926,433.635,85.157L450.987,86.389" id="L_CBSCreds_Note_0" class=" edge-thickness-thick edge-pattern-solid edge-thickness-normal edge-pattern-solid flowchart-link" style=";" data-edge="true" data-et="edge" data-id="L_CBSCreds_Note_0" data-points="W3sieCI6MTQ4LjMzOTE4MDQyNDUyODMsInkiOjQ3Nn0seyJ4IjoyNzEuODc1LCJ5Ijo3OX0seyJ4IjoyOTYuODc1LCJ5Ijo3OX0seyJ4IjozMjEuODc1LCJ5Ijo3OX0seyJ4IjozNDYuODc1LCJ5Ijo3OX0seyJ4Ijo0NTQuOTc2NTYyNSwieSI6ODYuNjcxNzIzNzkwMzIyNTd9XQ==" marker-end="url(#mermaid-svg_flowchart-v2-pointEnd)"/><path d="M589.484,662L600.716,657C611.947,652,634.411,642,655.37,617.833C676.328,593.667,695.781,555.333,715.234,536.167C734.688,517,754.141,517,767.585,515.717C781.029,514.435,788.465,511.87,792.183,510.587L795.9,509.305" id="L_IndicatorCred_Email_0" class=" edge-thickness-normal edge-pattern-dotted edge-thickness-normal edge-pattern-solid flowchart-link" style=";" data-edge="true" data-et="edge" data-id="L_IndicatorCred_Email_0" data-points="W3sieCI6NTg5LjQ4MzY5NTY1MjE3MzksInkiOjY2Mn0seyJ4Ijo2NTYuODc1LCJ5Ijo2MzJ9LHsieCI6NzE1LjIzNDM3NSwieSI6NTE3fSx7IngiOjc3My41OTM3NSwieSI6NTE3fSx7IngiOjc5OS42ODE2NDA2MjUsInkiOjUwOH1d" marker-end="url(#mermaid-svg_flowchart-v2-pointEnd)"/><path d="M631.875,736.226L636.042,737.355C640.208,738.484,648.542,740.742,662.435,741.871C676.328,743,695.781,743,715.234,743C734.688,743,754.141,743,777.532,724.536C800.924,706.072,828.254,669.143,841.919,650.679L855.584,632.215" id="L_IndicatorCred_UserAccount_0" class=" edge-thickness-normal edge-pattern-dotted edge-thickness-normal edge-pattern-solid flowchart-link" style=";" data-edge="true" data-et="edge" data-id="L_IndicatorCred_UserAccount_0" data-points="W3sieCI6NjMxLjg3NSwieSI6NzM2LjIyNTgwNjQ1MTYxMjl9LHsieCI6NjU2Ljg3NSwieSI6NzQzfSx7IngiOjcxNS4yMzQzNzUsInkiOjc0M30seyJ4Ijo3NzMuNTkzNzUsInkiOjc0M30seyJ4Ijo4NTcuOTYzMDk4NDA0MjU1MywieSI6NjI5fV0=" marker-end="url(#mermaid-svg_flowchart-v2-pointEnd)"/><path d="M210.852,90.75L221.022,92.291C231.193,93.833,251.534,96.917,265.871,98.458C280.208,100,288.542,100,296.875,100C305.208,100,313.542,100,321.875,100C330.208,100,338.542,100,360.06,98.881C381.578,97.761,416.282,95.522,433.633,94.403L450.985,93.283" id="L_CBSCards_Note_0" class=" edge-thickness-thick edge-pattern-solid edge-thickness-normal edge-pattern-solid flowchart-link" style=";" data-edge="true" data-et="edge" data-id="L_CBSCards_Note_0" data-points="W3sieCI6MjEwLjg1MTU2MjUsInkiOjkwLjc0OTY0NDcxODE0MzA2fSx7IngiOjI3MS44NzUsInkiOjEwMH0seyJ4IjoyOTYuODc1LCJ5IjoxMDB9LHsieCI6MzIxLjg3NSwieSI6MTAwfSx7IngiOjM0Ni44NzUsInkiOjEwMH0seyJ4Ijo0NTQuOTc2NTYyNSwieSI6OTMuMDI1NzA1NjQ1MTYxM31d" marker-end="url(#mermaid-svg_flowchart-v2-pointEnd)"/><path d="M170.127,1043L187.085,1027.833C204.043,1012.667,237.959,982.333,259.084,967.167C280.208,952,288.542,952,296.875,952C305.208,952,313.542,952,321.875,952C330.208,952,338.542,952,357.76,952C376.979,952,407.083,952,422.135,952L437.188,952" id="L_CBSDomain_Indicator_0" class=" edge-thickness-thick edge-pattern-solid edge-thickness-normal edge-pattern-solid flowchart-link" style=";" data-edge="true" data-et="edge" data-id="L_CBSDomain_Indicator_0" data-points="W3sieCI6MTcwLjEyNjU4ODk4MzA1MDg1LCJ5IjoxMDQzfSx7IngiOjI3MS44NzUsInkiOjk1Mn0seyJ4IjoyOTYuODc1LCJ5Ijo5NTJ9LHsieCI6MzIxLjg3NSwieSI6OTUyfSx7IngiOjM0Ni44NzUsInkiOjk1Mn0seyJ4Ijo0NDEuMTg3NSwieSI6OTUyfV0=" marker-end="url(#mermaid-svg_flowchart-v2-pointEnd)"/><path d="M199.309,1097L211.404,1102.5C223.498,1108,247.686,1119,263.947,1124.5C280.208,1130,288.542,1130,296.875,1130C305.208,1130,313.542,1130,321.875,1130C330.208,1130,338.542,1130,368.542,1130C398.542,1130,450.208,1130,501.875,1130C553.542,1130,605.208,1130,640.768,1109.5C676.328,1089,695.781,1048,715.234,1027.5C734.688,1007,754.141,1007,767.442,1006.863C780.743,1006.726,787.893,1006.452,791.467,1006.315L795.042,1006.178" id="L_CBSDomain_Domain_0" class=" edge-thickness-thick edge-pattern-solid edge-thickness-normal edge-pattern-solid flowchart-link" style=";" data-edge="true" data-et="edge" data-id="L_CBSDomain_Domain_0" data-points="W3sieCI6MTk5LjMwOTM3NSwieSI6MTA5N30seyJ4IjoyNzEuODc1LCJ5IjoxMTMwfSx7IngiOjI5Ni44NzUsInkiOjExMzB9LHsieCI6MzIxLjg3NSwieSI6MTEzMH0seyJ4IjozNDYuODc1LCJ5IjoxMTMwfSx7IngiOjUwMS44NzUsInkiOjExMzB9LHsieCI6NjU2Ljg3NSwieSI6MTEzMH0seyJ4Ijo3MTUuMjM0Mzc1LCJ5IjoxMDA3fSx7IngiOjc3My41OTM3NSwieSI6MTAwN30seyJ4Ijo3OTkuMDM5MDYyNSwieSI6MTAwNi4wMjQ2MzEyNzk0Nzl9XQ==" marker-end="url(#mermaid-svg_flowchart-v2-pointEnd)"/><path d="M235.75,1043.857L241.771,1042.214C247.792,1040.571,259.833,1037.286,270.021,1035.643C280.208,1034,288.542,1034,296.875,1034C305.208,1034,313.542,1034,321.875,1034C330.208,1034,338.542,1034,368.542,1034C398.542,1034,450.208,1034,501.875,1034C553.542,1034,605.208,1034,640.768,1016C676.328,998,695.781,962,715.234,944C734.688,926,754.141,926,781.259,926C808.378,926,843.161,926,884.466,926C925.771,926,973.596,926,1015.02,910.935C1056.445,895.87,1091.467,865.739,1108.979,850.674L1126.49,835.609" id="L_CBSDomain_IPv4_0" class=" edge-thickness-thick edge-pattern-solid edge-thickness-normal edge-pattern-solid flowchart-link" style=";" data-edge="true" data-et="edge" data-id="L_CBSDomain_IPv4_0" data-points="W3sieCI6MjM1Ljc1LCJ5IjoxMDQzLjg1NjkzOTgzODkzODh9LHsieCI6MjcxLjg3NSwieSI6MTAzNH0seyJ4IjoyOTYuODc1LCJ5IjoxMDM0fSx7IngiOjMyMS44NzUsInkiOjEwMzR9LHsieCI6MzQ2Ljg3NSwieSI6MTAzNH0seyJ4Ijo1MDEuODc1LCJ5IjoxMDM0fSx7IngiOjY1Ni44NzUsInkiOjEwMzR9LHsieCI6NzE1LjIzNDM3NSwieSI6OTI2fSx7IngiOjc3My41OTM3NSwieSI6OTI2fSx7IngiOjg3Ny45NDUzMTI1LCJ5Ijo5MjZ9LHsieCI6MTAyMS40MjE4NzUsInkiOjkyNn0seyJ4IjoxMTI5LjUyMjI2NTYyNSwieSI6ODMzfV0=" marker-end="url(#mermaid-svg_flowchart-v2-pointEnd)"/><path d="M562.563,952L578.281,952C594,952,625.438,952,650.883,966.5C676.328,981,695.781,1010,715.234,1024.5C734.688,1039,754.141,1039,767.585,1037.717C781.029,1036.435,788.465,1033.87,792.183,1032.587L795.9,1031.305" id="L_Indicator_Domain_0" class=" edge-thickness-normal edge-pattern-dotted edge-thickness-normal edge-pattern-solid flowchart-link" style=";" data-edge="true" data-et="edge" data-id="L_Indicator_Domain_0" data-points="W3sieCI6NTYyLjU2MjUsInkiOjk1Mn0seyJ4Ijo2NTYuODc1LCJ5Ijo5NTJ9LHsieCI6NzE1LjIzNDM3NSwieSI6MTAzOX0seyJ4Ijo3NzMuNTkzNzUsInkiOjEwMzl9LHsieCI6Nzk5LjY4MTY0MDYyNSwieSI6MTAzMH1d" marker-end="url(#mermaid-svg_flowchart-v2-pointEnd)"/><path d="M956.852,1003L967.613,1003C978.375,1003,999.898,1003,1030.336,975.211C1060.774,947.422,1100.126,891.843,1119.802,864.054L1139.478,836.265" id="L_Domain_IPv4_0" class=" edge-thickness-normal edge-pattern-dotted edge-thickness-normal edge-pattern-solid flowchart-link" style=";" data-edge="true" data-et="edge" data-id="L_Domain_IPv4_0" data-points="W3sieCI6OTU2Ljg1MTU2MjUsInkiOjEwMDN9LHsieCI6MTAyMS40MjE4NzUsInkiOjEwMDN9LHsieCI6MTE0MS43ODkxMDIxNTczNjA1LCJ5Ijo4MzN9XQ==" marker-end="url(#mermaid-svg_flowchart-v2-pointEnd)"/></g><g class="edgeLabels"><g class="edgeLabel"><g class="label" data-id="L_CBSIncidents_CaseIncident_0" transform="translate(0, 0)"><foreignObject width="0" height="0"><div xmlns="http://www.w3.org/1999/xhtml" class="labelBkg" style="display: table-cell; white-space: nowrap; line-height: 1.5; max-width: 200px; text-align: center;"><span class="edgeLabel "></span></div></foreignObject></g></g><g class="edgeLabel"><g class="label" data-id="L_CBSIncidents_ExtRef_0" transform="translate(0, 0)"><foreignObject width="0" height="0"><div xmlns="http://www.w3.org/1999/xhtml" class="labelBkg" style="display: table-cell; white-space: nowrap; line-height: 1.5; max-width: 200px; text-align: center;"><span class="edgeLabel "></span></div></foreignObject></g></g><g class="edgeLabel"><g class="label" data-id="L_CBSMalware_MalwareObj_0" transform="translate(0, 0)"><foreignObject width="0" height="0"><div xmlns="http://www.w3.org/1999/xhtml" class="labelBkg" style="display: table-cell; white-space: nowrap; line-height: 1.5; max-width: 200px; text-align: center;"><span class="edgeLabel "></span></div></foreignObject></g></g><g class="edgeLabel"><g class="label" data-id="L_CBSMalware_IPv4_0" transform="translate(0, 0)"><foreignObject width="0" height="0"><div xmlns="http://www.w3.org/1999/xhtml" class="labelBkg" style="display: table-cell; white-space: nowrap; line-height: 1.5; max-width: 200px; text-align: center;"><span class="edgeLabel "></span></div></foreignObject></g></g><g class="edgeLabel"><g class="label" data-id="L_CBSMalware_Domain_0" transform="translate(0, 0)"><foreignObject width="0" height="0"><div xmlns="http://www.w3.org/1999/xhtml" class="labelBkg" style="display: table-cell; white-space: nowrap; line-height: 1.5; max-width: 200px; text-align: center;"><span class="edgeLabel "></span></div></foreignObject></g></g><g class="edgeLabel"><g class="label" data-id="L_CBSMalware_Email_0" transform="translate(0, 0)"><foreignObject width="0" height="0"><div xmlns="http://www.w3.org/1999/xhtml" class="labelBkg" style="display: table-cell; white-space: nowrap; line-height: 1.5; max-width: 200px; text-align: center;"><span class="edgeLabel "></span></div></foreignObject></g></g><g class="edgeLabel" transform="translate(877.9453125, 817)"><g class="label" data-id="L_MalwareObj_IPv4_0" transform="translate(-16.8984375, -12)"><foreignObject width="33.796875" height="24"><div xmlns="http://www.w3.org/1999/xhtml" class="labelBkg" style="display: table-cell; white-space: nowrap; line-height: 1.5; max-width: 200px; text-align: center;"><span class="edgeLabel "><p>uses</p></span></div></foreignObject></g></g><g class="edgeLabel"><g class="label" data-id="L_CBSCreds_IndicatorCred_0" transform="translate(0, 0)"><foreignObject width="0" height="0"><div xmlns="http://www.w3.org/1999/xhtml" class="labelBkg" style="display: table-cell; white-space: nowrap; line-height: 1.5; max-width: 200px; text-align: center;"><span class="edgeLabel "></span></div></foreignObject></g></g><g class="edgeLabel"><g class="label" data-id="L_CBSCreds_UserAccount_0" transform="translate(0, 0)"><foreignObject width="0" height="0"><div xmlns="http://www.w3.org/1999/xhtml" class="labelBkg" style="display: table-cell; white-space: nowrap; line-height: 1.5; max-width: 200px; text-align: center;"><span class="edgeLabel "></span></div></foreignObject></g></g><g class="edgeLabel"><g class="label" data-id="L_CBSCreds_Email_0" transform="translate(0, 0)"><foreignObject width="0" height="0"><div xmlns="http://www.w3.org/1999/xhtml" class="labelBkg" style="display: table-cell; white-space: nowrap; line-height: 1.5; max-width: 200px; text-align: center;"><span class="edgeLabel "></span></div></foreignObject></g></g><g class="edgeLabel"><g class="label" data-id="L_CBSCreds_Domain_0" transform="translate(0, 0)"><foreignObject width="0" height="0"><div xmlns="http://www.w3.org/1999/xhtml" class="labelBkg" style="display: table-cell; white-space: nowrap; line-height: 1.5; max-width: 200px; text-align: center;"><span class="edgeLabel "></span></div></foreignObject></g></g><g class="edgeLabel"><g class="label" data-id="L_CBSCreds_Note_0" transform="translate(0, 0)"><foreignObject width="0" height="0"><div xmlns="http://www.w3.org/1999/xhtml" class="labelBkg" style="display: table-cell; white-space: nowrap; line-height: 1.5; max-width: 200px; text-align: center;"><span class="edgeLabel "></span></div></foreignObject></g></g><g class="edgeLabel" transform="translate(715.234375, 517)"><g class="label" data-id="L_IndicatorCred_Email_0" transform="translate(-33.359375, -12)"><foreignObject width="66.71875" height="24"><div xmlns="http://www.w3.org/1999/xhtml" class="labelBkg" style="display: table-cell; white-space: nowrap; line-height: 1.5; max-width: 200px; text-align: center;"><span class="edgeLabel "><p>based-on</p></span></div></foreignObject></g></g><g class="edgeLabel" transform="translate(715.234375, 743)"><g class="label" data-id="L_IndicatorCred_UserAccount_0" transform="translate(-33.359375, -12)"><foreignObject width="66.71875" height="24"><div xmlns="http://www.w3.org/1999/xhtml" class="labelBkg" style="display: table-cell; white-space: nowrap; line-height: 1.5; max-width: 200px; text-align: center;"><span class="edgeLabel "><p>based-on</p></span></div></foreignObject></g></g><g class="edgeLabel"><g class="label" data-id="L_CBSCards_Note_0" transform="translate(0, 0)"><foreignObject width="0" height="0"><div xmlns="http://www.w3.org/1999/xhtml" class="labelBkg" style="display: table-cell; white-space: nowrap; line-height: 1.5; max-width: 200px; text-align: center;"><span class="edgeLabel "></span></div></foreignObject></g></g><g class="edgeLabel"><g class="label" data-id="L_CBSDomain_Indicator_0" transform="translate(0, 0)"><foreignObject width="0" height="0"><div xmlns="http://www.w3.org/1999/xhtml" class="labelBkg" style="display: table-cell; white-space: nowrap; line-height: 1.5; max-width: 200px; text-align: center;"><span class="edgeLabel "></span></div></foreignObject></g></g><g class="edgeLabel"><g class="label" data-id="L_CBSDomain_Domain_0" transform="translate(0, 0)"><foreignObject width="0" height="0"><div xmlns="http://www.w3.org/1999/xhtml" class="labelBkg" style="display: table-cell; white-space: nowrap; line-height: 1.5; max-width: 200px; text-align: center;"><span class="edgeLabel "></span></div></foreignObject></g></g><g class="edgeLabel"><g class="label" data-id="L_CBSDomain_IPv4_0" transform="translate(0, 0)"><foreignObject width="0" height="0"><div xmlns="http://www.w3.org/1999/xhtml" class="labelBkg" style="display: table-cell; white-space: nowrap; line-height: 1.5; max-width: 200px; text-align: center;"><span class="edgeLabel "></span></div></foreignObject></g></g><g class="edgeLabel" transform="translate(715.234375, 1039)"><g class="label" data-id="L_Indicator_Domain_0" transform="translate(-33.359375, -12)"><foreignObject width="66.71875" height="24"><div xmlns="http://www.w3.org/1999/xhtml" class="labelBkg" style="display: table-cell; white-space: nowrap; line-height: 1.5; max-width: 200px; text-align: center;"><span class="edgeLabel "><p>based-on</p></span></div></foreignObject></g></g><g class="edgeLabel" transform="translate(1021.421875, 1003)"><g class="label" data-id="L_Domain_IPv4_0" transform="translate(-39.125, -12)"><foreignObject width="78.25" height="24"><div xmlns="http://www.w3.org/1999/xhtml" class="labelBkg" style="display: table-cell; white-space: nowrap; line-height: 1.5; max-width: 200px; text-align: center;"><span class="edgeLabel "><p>resolves-to</p></span></div></foreignObject></g></g></g><g class="nodes"><g class="node default  " id="flowchart-CBSIncidents-0" transform="translate(139.9375, 204)"><rect class="basic label-container" style="" x="-62.0234375" y="-27" width="124.046875" height="54"/><g class="label" style="" transform="translate(-32.0234375, -12)"><rect/><foreignObject width="64.046875" height="24"><div xmlns="http://www.w3.org/1999/xhtml" style="display: table-cell; white-space: nowrap; line-height: 1.5; max-width: 200px; text-align: center;"><span class="nodeLabel "><p>Incidents</p></span></div></foreignObject></g></g><g class="node default  " id="flowchart-CBSMalware-1" transform="translate(139.9375, 817)"><rect class="basic label-container" style="" x="-79.8046875" y="-27" width="159.609375" height="54"/><g class="label" style="" transform="translate(-49.8046875, -12)"><rect/><foreignObject width="99.609375" height="24"><div xmlns="http://www.w3.org/1999/xhtml" style="display: table-cell; white-space: nowrap; line-height: 1.5; max-width: 200px; text-align: center;"><span class="nodeLabel "><p>Malware Logs</p></span></div></foreignObject></g></g><g class="node default  " id="flowchart-CBSCreds-2" transform="translate(139.9375, 503)"><rect class="basic label-container" style="" x="-106.9375" y="-27" width="213.875" height="54"/><g class="label" style="" transform="translate(-76.9375, -12)"><rect/><foreignObject width="153.875" height="24"><div xmlns="http://www.w3.org/1999/xhtml" style="display: table-cell; white-space: nowrap; line-height: 1.5; max-width: 200px; text-align: center;"><span class="nodeLabel "><p>Breached Credentials</p></span></div></foreignObject></g></g><g class="node default  " id="flowchart-CBSCards-3" transform="translate(139.9375, 80)"><rect class="basic label-container" style="" x="-70.9140625" y="-27" width="141.828125" height="54"/><g class="label" style="" transform="translate(-40.9140625, -12)"><rect/><foreignObject width="81.828125" height="24"><div xmlns="http://www.w3.org/1999/xhtml" style="display: table-cell; white-space: nowrap; line-height: 1.5; max-width: 200px; text-align: center;"><span class="nodeLabel "><p>Card Leaks</p></span></div></foreignObject></g></g><g class="node default  " id="flowchart-CBSDomain-4" transform="translate(139.9375, 1070)"><rect class="basic label-container" style="" x="-95.8125" y="-27" width="191.625" height="54"/><g class="label" style="" transform="translate(-65.8125, -12)"><rect/><foreignObject width="131.625" height="24"><div xmlns="http://www.w3.org/1999/xhtml" style="display: table-cell; white-space: nowrap; line-height: 1.5; max-width: 200px; text-align: center;"><span class="nodeLabel "><p>Domain Protection</p></span></div></foreignObject></g></g><g class="node default  " id="flowchart-CaseIncident-5" transform="translate(501.875, 585)"><rect class="basic label-container" style="" x="-76.6953125" y="-27" width="153.390625" height="54"/><g class="label" style="" transform="translate(-46.6953125, -12)"><rect/><foreignObject width="93.390625" height="24"><div xmlns="http://www.w3.org/1999/xhtml" style="display: table-cell; white-space: nowrap; line-height: 1.5; max-width: 200px; text-align: center;"><span class="nodeLabel "><p>CaseIncident</p></span></div></foreignObject></g></g><g class="node default  " id="flowchart-MalwareObj-6" transform="translate(501.875, 817)"><rect class="basic label-container" style="" x="-60.234375" y="-27" width="120.46875" height="54"/><g class="label" style="" transform="translate(-30.234375, -12)"><rect/><foreignObject width="60.46875" height="24"><div xmlns="http://www.w3.org/1999/xhtml" style="display: table-cell; white-space: nowrap; line-height: 1.5; max-width: 200px; text-align: center;"><span class="nodeLabel "><p>Malware</p></span></div></foreignObject></g></g><g class="node default  " id="flowchart-Indicator-7" transform="translate(501.875, 952)"><rect class="basic label-container" style="" x="-60.6875" y="-27" width="121.375" height="54"/><g class="label" style="" transform="translate(-30.6875, -12)"><rect/><foreignObject width="61.375" height="24"><div xmlns="http://www.w3.org/1999/xhtml" style="display: table-cell; white-space: nowrap; line-height: 1.5; max-width: 200px; text-align: center;"><span class="nodeLabel "><p>Indicator</p></span></div></foreignObject></g></g><g class="node default  " id="flowchart-IndicatorCred-8" transform="translate(501.875, 701)"><rect class="basic label-container" style="" x="-130" y="-39" width="260" height="78"/><g class="label" style="" transform="translate(-100, -24)"><rect/><foreignObject width="200" height="48"><div xmlns="http://www.w3.org/1999/xhtml" style="display: table; white-space: break-spaces; line-height: 1.5; max-width: 200px; text-align: center; width: 200px;"><span class="nodeLabel "><p>Indicator / breached credential</p></span></div></foreignObject></g></g><g class="node default  " id="flowchart-IPv4-9" transform="translate(1160.90625, 806)"><rect class="basic label-container" style="" x="-75.359375" y="-27" width="150.71875" height="54"/><g class="label" style="" transform="translate(-45.359375, -12)"><rect/><foreignObject width="90.71875" height="24"><div xmlns="http://www.w3.org/1999/xhtml" style="display: table-cell; white-space: nowrap; line-height: 1.5; max-width: 200px; text-align: center;"><span class="nodeLabel "><p>IPv4Address</p></span></div></foreignObject></g></g><g class="node default  " id="flowchart-Domain-10" transform="translate(877.9453125, 1003)"><rect class="basic label-container" style="" x="-78.90625" y="-27" width="157.8125" height="54"/><g class="label" style="" transform="translate(-48.90625, -12)"><rect/><foreignObject width="97.8125" height="24"><div xmlns="http://www.w3.org/1999/xhtml" style="display: table-cell; white-space: nowrap; line-height: 1.5; max-width: 200px; text-align: center;"><span class="nodeLabel "><p>DomainName</p></span></div></foreignObject></g></g><g class="node default  " id="flowchart-Email-11" transform="translate(877.9453125, 481)"><rect class="basic label-container" style="" x="-79.3515625" y="-27" width="158.703125" height="54"/><g class="label" style="" transform="translate(-49.3515625, -12)"><rect/><foreignObject width="98.703125" height="24"><div xmlns="http://www.w3.org/1999/xhtml" style="display: table-cell; white-space: nowrap; line-height: 1.5; max-width: 200px; text-align: center;"><span class="nodeLabel "><p>EmailAddress</p></span></div></foreignObject></g></g><g class="node default  " id="flowchart-UserAccount-12" transform="translate(877.9453125, 602)"><rect class="basic label-container" style="" x="-75.796875" y="-27" width="151.59375" height="54"/><g class="label" style="" transform="translate(-45.796875, -12)"><rect/><foreignObject width="91.59375" height="24"><div xmlns="http://www.w3.org/1999/xhtml" style="display: table-cell; white-space: nowrap; line-height: 1.5; max-width: 200px; text-align: center;"><span class="nodeLabel "><p>UserAccount</p></span></div></foreignObject></g></g><g class="node default  " id="flowchart-Note-13" transform="translate(501.875, 90)"><rect class="basic label-container" style="" x="-46.8984375" y="-27" width="93.796875" height="54"/><g class="label" style="" transform="translate(-16.8984375, -12)"><rect/><foreignObject width="33.796875" height="24"><div xmlns="http://www.w3.org/1999/xhtml" style="display: table-cell; white-space: nowrap; line-height: 1.5; max-width: 200px; text-align: center;"><span class="nodeLabel "><p>Note</p></span></div></foreignObject></g></g><g class="node default  " id="flowchart-ExtRef-14" transform="translate(501.875, 204)"><rect class="basic label-container" style="" x="-96.2578125" y="-27" width="192.515625" height="54"/><g class="label" style="" transform="translate(-66.2578125, -12)"><rect/><foreignObject width="132.515625" height="24"><div xmlns="http://www.w3.org/1999/xhtml" style="display: table-cell; white-space: nowrap; line-height: 1.5; max-width: 200px; text-align: center;"><span class="nodeLabel "><p>ExternalReference</p></span></div></foreignObject></g></g><g class="node default  " id="flowchart-Identity-15" transform="translate(501.875, 308)"><rect class="basic label-container" style="" x="-118.046875" y="-27" width="236.09375" height="54"/><g class="label" style="" transform="translate(-88.046875, -12)"><rect/><foreignObject width="176.09375" height="24"><div xmlns="http://www.w3.org/1999/xhtml" style="display: table-cell; white-space: nowrap; line-height: 1.5; max-width: 200px; text-align: center;"><span class="nodeLabel "><p>Identity / CyberBlindSpot</p></span></div></foreignObject></g></g></g></g></g></svg>