<?xml version="1.0" encoding="UTF-8"?>
<svg width="682px" height="182px" viewBox="0 0 682 182" version="1.1" xmlns="http://www.w3.org/2000/svg" xmlns:xlink="http://www.w3.org/1999/xlink">
    <!-- Generator: Sketch 61.2 (89653) - https://sketch.com -->
    <title>TruKno-logo</title>
    <desc>Created with Sketch.</desc>
    <defs>
        <linearGradient x1="49.9904853%" y1="-38.0110063%" x2="49.9904853%" y2="92.177673%" id="linearGradient-1">
            <stop stop-color="#FA6A15" offset="0%"></stop>
            <stop stop-color="#FF1E1A" offset="100%"></stop>
        </linearGradient>
        <linearGradient x1="50%" y1="-35.6087551%" x2="50%" y2="190.930233%" id="linearGradient-2">
            <stop stop-color="#FA6A15" offset="0%"></stop>
            <stop stop-color="#FF1E1A" offset="100%"></stop>
        </linearGradient>
        <linearGradient x1="50.0296384%" y1="-19.0624713%" x2="50.0296384%" y2="132.850197%" id="linearGradient-3">
            <stop stop-color="#FA6A15" offset="0%"></stop>
            <stop stop-color="#FF1E1A" offset="100%"></stop>
        </linearGradient>
        <linearGradient x1="50.0356634%" y1="-137.006821%" x2="50.0356634%" y2="88.0700816%" id="linearGradient-4">
            <stop stop-color="#FA6A15" offset="0%"></stop>
            <stop stop-color="#FF1E1A" offset="100%"></stop>
        </linearGradient>
        <linearGradient x1="49.9816783%" y1="8.18575467%" x2="49.9816783%" y2="290.846938%" id="linearGradient-5">
            <stop stop-color="#FA6A15" offset="0%"></stop>
            <stop stop-color="#FF1E1A" offset="100%"></stop>
        </linearGradient>
        <linearGradient x1="50%" y1="15.2731348%" x2="50%" y2="440.275987%" id="linearGradient-6">
            <stop stop-color="#FA6A15" offset="0%"></stop>
            <stop stop-color="#FF1E1A" offset="100%"></stop>
        </linearGradient>
    </defs>
    <g id="TruKno-Logo-(NEW)" stroke="none" stroke-width="1" fill="none" fill-rule="evenodd">
        <g id="TruKno-logo">
            <polygon id="Path" fill="#FFFFFF" fill-rule="nonzero" points="246.88 140.53 246.88 61.43 217.76 61.43 217.76 40.43 301.07 40.43 301.07 61.43 271.66 61.43 271.66 140.53"></polygon>
            <path d="M300,140.53 L300,68.85 L321.84,68.85 L321.84,80.05 L322.26,80.05 C327.113333,71.8433333 333.646667,67.7366667 341.86,67.73 C343.375035,67.6404847 344.893616,67.8303074 346.34,68.29 L346.34,87.89 L345.78,87.89 C338.706667,86.8633333 333.113333,88.1 329,91.6 C324.886667,95.1 322.833333,100.676667 322.84,108.33 L322.84,140.53 L300,140.53 Z" id="Path" fill="#FFFFFF" fill-rule="nonzero"></path>
            <path d="M378.88,142.63 C370.76,142.63 364.53,140.226667 360.19,135.42 C355.85,130.613333 353.68,124.103333 353.68,115.89 L353.68,68.89 L376.36,68.89 L376.36,111.17 C376.36,119.29 379.953333,123.35 387.14,123.35 C390.672995,123.518136 394.084798,122.041166 396.38,119.35 C398.62,116.683333 399.74,113.206667 399.74,108.92 L399.74,68.92 L422.56,68.92 L422.56,140.6 L400.72,140.6 L400.72,131.78 L400.3,131.78 C394.886667,139.013333 387.746667,142.63 378.88,142.63 Z" id="Path" fill="#FFFFFF" fill-rule="nonzero"></path>
            <polygon id="Path" fill="#FFFFFF" fill-rule="nonzero" points="433.48 140.53 433.48 40.43 458.26 40.43 458.26 76.69 492.71 40.43 522.11 40.43 483.75 80.61 524.35 140.53 495.51 140.53 466.67 97.27 458.26 106.09 458.26 140.53"></polygon>
            <path d="M528.27,140.53 L528.27,68.85 L550.27,68.85 L550.27,78.65 L550.69,78.65 C556.19,70.7166667 563.563333,66.75 572.81,66.75 C580.55,66.75 586.64,69.2466667 591.08,74.24 C595.52,79.2333333 597.736667,85.79 597.730015,93.91 L597.730015,140.53 L574.89,140.53 L574.89,98.53 C574.89,94.61 573.933333,91.5066667 572.02,89.22 C570.1,86.93 567.33,85.79 563.69,85.79 C560.16679,85.6899885 556.799683,87.2440377 554.59,89.99 C552.25,92.79 551.083333,96.43 551.09,100.91 L551.09,140.53 L528.27,140.53 Z" id="Path" fill="#FFFFFF" fill-rule="nonzero"></path>
            <path d="M670.61,132 C663.57,139.186667 654.366667,142.776667 643,142.770009 C631.633333,142.763333 622.38,139.173333 615.24,132 C608.153333,124.813333 604.606667,115.76 604.599991,104.84 C604.593333,93.92 608.14,84.8666667 615.24,77.68 C622.333333,70.4866667 631.586667,66.89 643,66.89 C654.413333,66.89 663.63,70.4833333 670.65,77.67 C677.696667,84.8566667 681.22,93.91 681.22,104.83 C681.22,115.75 677.683333,124.806667 670.61,132 Z M631.61,120.66 C634.027867,124.476783 638.2953,126.717185 642.81,126.54 C647.341394,126.70752 651.625148,124.472519 654.08,120.66 C656.746667,116.74 658.08,111.466667 658.08,104.84 C658.08,98.2133333 656.746667,92.9166667 654.08,88.95 C651.549206,85.2407005 647.353813,83.0159113 642.863421,83.0018561 C638.373029,82.9879337 634.163855,85.1865405 631.61,88.88 C628.996667,92.8 627.69,98.1333333 627.69,104.88 C627.69,111.626667 629,116.883333 631.62,120.65 L631.61,120.66 Z" id="Shape" fill="#FFFFFF" fill-rule="nonzero"></path>
            <path d="M49.68,60 L39.34,54 C48.34,63.55 49.19,72.71 49.34,82 L49.69,156.84 L91.89,181.2 L91.89,132.81 C91.88,106.06 73,73.48 49.68,60 Z" id="Path" fill="url(#linearGradient-1)"></path>
            <path d="M20.69,43.31 L0.45,31.68 L0.45,80 L42.65,104.36 L43.37,104.78 L43.31,82 C43.2220717,65.988757 34.5995332,51.2404804 20.69,43.31 Z" id="Path" fill="url(#linearGradient-2)"></path>
            <path d="M140.37,50.79 C117.06,64.24 98.17,96.79 98.17,123.57 L98.17,135.44 C101.98,122.95 109.52,117.58 117.52,112.81 L182.52,74.81 L182.52,26.43 L140.37,50.79 Z" id="Path" fill="url(#linearGradient-3)"></path>
            <path d="M98.19995,156.83 L98.19995,181.22 L140.33,156.9 L140.33,106.45 L120.52,118 C106.682717,126.031801 98.1761497,140.830636 98.19995,156.83 L98.19995,156.83 Z" id="Path" fill="url(#linearGradient-4)"></path>
            <path d="M130,49.3 L140.34,43.3 C127.6,46.3 119.22,42.48 111.13,37.97 L46.13,0.07 L3.89,25.25 L45.82,49.46 C69,62.83 106.65,62.76 130,49.3 Z" id="Path" fill="url(#linearGradient-5)"></path>
            <path d="M158.92,32.55 L178.45,21.29 L137.25,0.1 L95.06,21 L94.33,21.42 L114.11,32.78 C128.01694,40.7073037 145.095169,40.6196449 158.92,32.55 Z" id="Path" fill="url(#linearGradient-6)"></path>
        </g>
    </g>
</svg>
