<svg id="mermaid-svg" width="100%" xmlns="http://www.w3.org/2000/svg" class="flowchart" style="max-width: 1390.171875px;" viewBox="0 0 1390.171875 1071" role="graphics-document document" aria-roledescription="flowchart-v2" xmlns:xlink="http://www.w3.org/1999/xlink"><style xmlns="http://www.w3.org/1999/xhtml">@import url("https://cdnjs.cloudflare.com/ajax/libs/font-awesome/6.7.2/css/all.min.css");</style><style>#mermaid-svg{font-family:"trebuchet ms",verdana,arial,sans-serif;font-size:16px;fill:#333;}@keyframes edge-animation-frame{from{stroke-dashoffset:0;}}@keyframes dash{to{stroke-dashoffset:0;}}#mermaid-svg .edge-animation-slow{stroke-dasharray:9,5!important;stroke-dashoffset:900;animation:dash 50s linear infinite;stroke-linecap:round;}#mermaid-svg .edge-animation-fast{stroke-dasharray:9,5!important;stroke-dashoffset:900;animation:dash 20s linear infinite;stroke-linecap:round;}#mermaid-svg .error-icon{fill:#552222;}#mermaid-svg .error-text{fill:#552222;stroke:#552222;}#mermaid-svg .edge-thickness-normal{stroke-width:1px;}#mermaid-svg .edge-thickness-thick{stroke-width:3.5px;}#mermaid-svg .edge-pattern-solid{stroke-dasharray:0;}#mermaid-svg .edge-thickness-invisible{stroke-width:0;fill:none;}#mermaid-svg .edge-pattern-dashed{stroke-dasharray:3;}#mermaid-svg .edge-pattern-dotted{stroke-dasharray:2;}#mermaid-svg .marker{fill:#333333;stroke:#333333;}#mermaid-svg .marker.cross{stroke:#333333;}#mermaid-svg svg{font-family:"trebuchet ms",verdana,arial,sans-serif;font-size:16px;}#mermaid-svg p{margin:0;}#mermaid-svg .label{font-family:"trebuchet ms",verdana,arial,sans-serif;color:#333;}#mermaid-svg .cluster-label text{fill:#333;}#mermaid-svg .cluster-label span{color:#333;}#mermaid-svg .cluster-label span p{background-color:transparent;}#mermaid-svg .label text,#mermaid-svg span{fill:#333;color:#333;}#mermaid-svg .node rect,#mermaid-svg .node circle,#mermaid-svg .node ellipse,#mermaid-svg .node polygon,#mermaid-svg .node path{fill:#ECECFF;stroke:#9370DB;stroke-width:1px;}#mermaid-svg .rough-node .label text,#mermaid-svg .node .label text,#mermaid-svg .image-shape .label,#mermaid-svg .icon-shape .label{text-anchor:middle;}#mermaid-svg .node .katex path{fill:#000;stroke:#000;stroke-width:1px;}#mermaid-svg .rough-node .label,#mermaid-svg .node .label,#mermaid-svg .image-shape .label,#mermaid-svg .icon-shape .label{text-align:center;}#mermaid-svg .node.clickable{cursor:pointer;}#mermaid-svg .root .anchor path{fill:#333333!important;stroke-width:0;stroke:#333333;}#mermaid-svg .arrowheadPath{fill:#333333;}#mermaid-svg .edgePath .path{stroke:#333333;stroke-width:2.0px;}#mermaid-svg .flowchart-link{stroke:#333333;fill:none;}#mermaid-svg .edgeLabel{background-color:rgba(232,232,232, 0.8);text-align:center;}#mermaid-svg .edgeLabel p{background-color:rgba(232,232,232, 0.8);}#mermaid-svg .edgeLabel rect{opacity:0.5;background-color:rgba(232,232,232, 0.8);fill:rgba(232,232,232, 0.8);}#mermaid-svg .labelBkg{background-color:rgba(232, 232, 232, 0.5);}#mermaid-svg .cluster rect{fill:#ffffde;stroke:#aaaa33;stroke-width:1px;}#mermaid-svg .cluster text{fill:#333;}#mermaid-svg .cluster span{color:#333;}#mermaid-svg div.mermaidTooltip{position:absolute;text-align:center;max-width:200px;padding:2px;font-family:"trebuchet ms",verdana,arial,sans-serif;font-size:12px;background:hsl(80, 100%, 96.2745098039%);border:1px solid #aaaa33;border-radius:2px;pointer-events:none;z-index:100;}#mermaid-svg .flowchartTitleText{text-anchor:middle;font-size:18px;fill:#333;}#mermaid-svg rect.text{fill:none;stroke-width:0;}#mermaid-svg .icon-shape,#mermaid-svg .image-shape{background-color:rgba(232,232,232, 0.8);text-align:center;}#mermaid-svg .icon-shape p,#mermaid-svg .image-shape p{background-color:rgba(232,232,232, 0.8);padding:2px;}#mermaid-svg .icon-shape rect,#mermaid-svg .image-shape rect{opacity:0.5;background-color:rgba(232,232,232, 0.8);fill:rgba(232,232,232, 0.8);}#mermaid-svg .label-icon{display:inline-block;height:1em;overflow:visible;vertical-align:-0.125em;}#mermaid-svg .node .label-icon path{fill:currentColor;stroke:revert;stroke-width:revert;}#mermaid-svg :root{--mermaid-font-family:"trebuchet ms",verdana,arial,sans-serif;}</style><g><marker id="mermaid-svg_flowchart-v2-pointEnd" class="marker flowchart-v2" viewBox="0 0 10 10" refX="5" refY="5" markerUnits="userSpaceOnUse" markerWidth="8" markerHeight="8" orient="auto"><path d="M 0 0 L 10 5 L 0 10 z" class="arrowMarkerPath" style="stroke-width: 1; stroke-dasharray: 1, 0;"/></marker><marker id="mermaid-svg_flowchart-v2-pointStart" class="marker flowchart-v2" viewBox="0 0 10 10" refX="4.5" refY="5" markerUnits="userSpaceOnUse" markerWidth="8" markerHeight="8" orient="auto"><path d="M 0 5 L 10 10 L 10 0 z" class="arrowMarkerPath" style="stroke-width: 1; stroke-dasharray: 1, 0;"/></marker><marker id="mermaid-svg_flowchart-v2-circleEnd" class="marker flowchart-v2" viewBox="0 0 10 10" refX="11" refY="5" markerUnits="userSpaceOnUse" markerWidth="11" markerHeight="11" orient="auto"><circle cx="5" cy="5" r="5" class="arrowMarkerPath" style="stroke-width: 1; stroke-dasharray: 1, 0;"/></marker><marker id="mermaid-svg_flowchart-v2-circleStart" class="marker flowchart-v2" viewBox="0 0 10 10" refX="-1" refY="5" markerUnits="userSpaceOnUse" markerWidth="11" markerHeight="11" orient="auto"><circle cx="5" cy="5" r="5" class="arrowMarkerPath" style="stroke-width: 1; stroke-dasharray: 1, 0;"/></marker><marker id="mermaid-svg_flowchart-v2-crossEnd" class="marker cross flowchart-v2" viewBox="0 0 11 11" refX="12" refY="5.2" markerUnits="userSpaceOnUse" markerWidth="11" markerHeight="11" orient="auto"><path d="M 1,1 l 9,9 M 10,1 l -9,9" class="arrowMarkerPath" style="stroke-width: 2; stroke-dasharray: 1, 0;"/></marker><marker id="mermaid-svg_flowchart-v2-crossStart" class="marker cross flowchart-v2" viewBox="0 0 11 11" refX="-1" refY="5.2" markerUnits="userSpaceOnUse" markerWidth="11" markerHeight="11" orient="auto"><path d="M 1,1 l 9,9 M 10,1 l -9,9" class="arrowMarkerPath" style="stroke-width: 2; stroke-dasharray: 1, 0;"/></marker><g class="root"><g class="clusters"><g class="cluster " id="OpenCTI" data-look="classic"><rect style="" x="285.390625" y="8" width="1096.78125" height="1043"/><g class="cluster-label " transform="translate(801.3203125, 8)"><foreignObject width="64.921875" height="24"><div xmlns="http://www.w3.org/1999/xhtml" style="display: table-cell; white-space: nowrap; line-height: 1.5; max-width: 200px; text-align: center;"><span class="nodeLabel "><p>OpenCTI</p></span></div></foreignObject></g></g><g class="cluster " id="HackerViewAPI" data-look="classic"><rect style="" x="8" y="39" width="227.390625" height="1024"/><g class="cluster-label " transform="translate(66.265625, 39)"><foreignObject width="110.859375" height="24"><div xmlns="http://www.w3.org/1999/xhtml" style="display: table-cell; white-space: nowrap; line-height: 1.5; max-width: 200px; text-align: center;"><span class="nodeLabel "><p>HackerViewAPI</p></span></div></foreignObject></g></g><g class="cluster " id="Other" data-look="classic"><rect style="" x="310.390625" y="122" width="260" height="228"/><g class="cluster-label " transform="translate(420.3828125, 122)"><foreignObject width="40.015625" height="24"><div xmlns="http://www.w3.org/1999/xhtml" style="display: table-cell; white-space: nowrap; line-height: 1.5; max-width: 200px; text-align: center;"><span class="nodeLabel "><p>Other</p></span></div></foreignObject></g></g><g class="cluster " id="Observables" data-look="classic"><rect style="" x="731.53125" y="28" width="276.328125" height="124"/><g class="cluster-label " transform="translate(824.78125, 28)"><foreignObject width="89.828125" height="24"><div xmlns="http://www.w3.org/1999/xhtml" style="display: table-cell; white-space: nowrap; line-height: 1.5; max-width: 200px; text-align: center;"><span class="nodeLabel "><p>Observables</p></span></div></foreignObject></g></g><g class="cluster " id="DomainObjects" data-look="classic"><rect style="" x="310.390625" y="370" width="1046.78125" height="661"/><g class="cluster-label " transform="translate(779.09375, 370)"><foreignObject width="109.375" height="24"><div xmlns="http://www.w3.org/1999/xhtml" style="display: table-cell; white-space: nowrap; line-height: 1.5; max-width: 200px; text-align: center;"><span class="nodeLabel "><p>DomainObjects</p></span></div></foreignObject></g></g></g><g class="edgePaths"><path d="M140.188,510L156.055,533.167C171.922,556.333,203.656,602.667,223.69,625.833C243.724,649,252.057,649,260.391,649C268.724,649,277.057,649,285.391,649C293.724,649,302.057,649,327.891,649C353.724,649,397.057,649,440.391,649C483.724,649,527.057,649,562.152,649C597.247,649,624.104,649,650.961,649C677.818,649,704.674,649,730.328,654.397C755.981,659.795,780.431,670.59,792.656,675.987L804.881,681.384" id="L_HVIssues_Vulnerability_0" class=" edge-thickness-thick edge-pattern-solid edge-thickness-normal edge-pattern-solid flowchart-link" style=";" data-edge="true" data-et="edge" data-id="L_HVIssues_Vulnerability_0" data-points="W3sieCI6MTQwLjE4NzkyMzU2OTI3NzEsInkiOjUxMH0seyJ4IjoyMzUuMzkwNjI1LCJ5Ijo2NDl9LHsieCI6MjYwLjM5MDYyNSwieSI6NjQ5fSx7IngiOjI4NS4zOTA2MjUsInkiOjY0OX0seyJ4IjozMTAuMzkwNjI1LCJ5Ijo2NDl9LHsieCI6NDQwLjM5MDYyNSwieSI6NjQ5fSx7IngiOjU3MC4zOTA2MjUsInkiOjY0OX0seyJ4Ijo2NTAuOTYwOTM3NSwieSI6NjQ5fSx7IngiOjczMS41MzEyNSwieSI6NjQ5fSx7IngiOjgwOC41NDA3Mjc0NTkwMTY0LCJ5Ijo2ODN9XQ==" marker-end="url(#mermaid-svg_flowchart-v2-pointEnd)"/><path d="M144.434,510L159.594,528C174.753,546,205.072,582,224.398,600C243.724,618,252.057,618,260.391,618C268.724,618,277.057,618,285.391,618C293.724,618,302.057,618,324.345,643.788C346.633,669.576,382.875,721.151,400.997,746.939L419.118,772.727" id="L_HVIssues_System_0" class=" edge-thickness-thick edge-pattern-solid edge-thickness-normal edge-pattern-solid flowchart-link" style=";" data-edge="true" data-et="edge" data-id="L_HVIssues_System_0" data-points="W3sieCI6MTQ0LjQzNDM3NSwieSI6NTEwfSx7IngiOjIzNS4zOTA2MjUsInkiOjYxOH0seyJ4IjoyNjAuMzkwNjI1LCJ5Ijo2MTh9LHsieCI6Mjg1LjM5MDYyNSwieSI6NjE4fSx7IngiOjMxMC4zOTA2MjUsInkiOjYxOH0seyJ4Ijo0MjEuNDE3NjUyMDI3MDI3MDMsInkiOjc3Nn1d" marker-end="url(#mermaid-svg_flowchart-v2-pointEnd)"/><path d="M151.212,510L165.242,522.833C179.272,535.667,207.331,561.333,225.528,574.167C243.724,587,252.057,587,260.391,587C268.724,587,277.057,587,285.391,587C293.724,587,302.057,587,310.958,587C319.859,587,329.328,587,334.063,587L338.797,587" id="L_HVIssues_Note_0" class=" edge-thickness-thick edge-pattern-solid edge-thickness-normal edge-pattern-solid flowchart-link" style=";" data-edge="true" data-et="edge" data-id="L_HVIssues_Note_0" data-points="W3sieCI6MTUxLjIxMjM2NDc4MzY1Mzg0LCJ5Ijo1MTB9LHsieCI6MjM1LjM5MDYyNSwieSI6NTg3fSx7IngiOjI2MC4zOTA2MjUsInkiOjU4N30seyJ4IjoyODUuMzkwNjI1LCJ5Ijo1ODd9LHsieCI6MzEwLjM5MDYyNSwieSI6NTg3fSx7IngiOjM0Mi43OTY4NzUsInkiOjU4N31d" marker-end="url(#mermaid-svg_flowchart-v2-pointEnd)"/><path d="M205.938,483L210.846,483C215.755,483,225.573,483,234.648,483C243.724,483,252.057,483,260.391,483C268.724,483,277.057,483,285.391,483C293.724,483,302.057,483,314.441,483C326.826,483,343.26,483,351.478,483L359.695,483" id="L_HVIssues_CaseIncident_0" class=" edge-thickness-thick edge-pattern-solid edge-thickness-normal edge-pattern-solid flowchart-link" style=";" data-edge="true" data-et="edge" data-id="L_HVIssues_CaseIncident_0" data-points="W3sieCI6MjA1LjkzNzUsInkiOjQ4M30seyJ4IjoyMzUuMzkwNjI1LCJ5Ijo0ODN9LHsieCI6MjYwLjM5MDYyNSwieSI6NDgzfSx7IngiOjI4NS4zOTA2MjUsInkiOjQ4M30seyJ4IjozMTAuMzkwNjI1LCJ5Ijo0ODN9LHsieCI6MzYzLjY5NTMxMjUsInkiOjQ4M31d" marker-end="url(#mermaid-svg_flowchart-v2-pointEnd)"/><path d="M142.721,456L158.166,436.167C173.611,416.333,204.501,376.667,224.112,356.833C243.724,337,252.057,337,260.391,337C268.724,337,277.057,337,285.391,328.833C293.724,320.667,302.057,304.333,311.181,296.167C320.305,288,330.219,288,335.176,288L340.133,288" id="L_HVIssues_ExtRef_0" class=" edge-thickness-thick edge-pattern-solid edge-thickness-normal edge-pattern-solid flowchart-link" style=";" data-edge="true" data-et="edge" data-id="L_HVIssues_ExtRef_0" data-points="W3sieCI6MTQyLjcyMTE1Nzk2MjMyODc2LCJ5Ijo0NTZ9LHsieCI6MjM1LjM5MDYyNSwieSI6MzM3fSx7IngiOjI2MC4zOTA2MjUsInkiOjMzN30seyJ4IjoyODUuMzkwNjI1LCJ5IjozMzd9LHsieCI6MzEwLjM5MDYyNSwieSI6Mjg4fSx7IngiOjM0NC4xMzI4MTI1LCJ5IjoyODh9XQ==" marker-end="url(#mermaid-svg_flowchart-v2-pointEnd)"/><path d="M140.188,456L156.055,432.833C171.922,409.667,203.656,363.333,223.69,340.167C243.724,317,252.057,317,260.391,317C268.724,317,277.057,317,285.391,334.333C293.724,351.667,302.057,386.333,327.891,403.667C353.724,421,397.057,421,440.391,421C483.724,421,527.057,421,562.152,421C597.247,421,624.104,421,650.961,421C677.818,421,704.674,421,741.13,421C777.586,421,823.641,421,869.695,421C915.75,421,961.805,421,994.632,421C1027.458,421,1047.057,421,1078.317,440.057C1109.577,459.115,1152.497,497.229,1173.957,516.287L1195.417,535.344" id="L_HVIssues_AttackPattern_0" class=" edge-thickness-thick edge-pattern-solid edge-thickness-normal edge-pattern-solid flowchart-link" style=";" data-edge="true" data-et="edge" data-id="L_HVIssues_AttackPattern_0" data-points="W3sieCI6MTQwLjE4NzkyMzU2OTI3NzEsInkiOjQ1Nn0seyJ4IjoyMzUuMzkwNjI1LCJ5IjozMTd9LHsieCI6MjYwLjM5MDYyNSwieSI6MzE3fSx7IngiOjI4NS4zOTA2MjUsInkiOjMxN30seyJ4IjozMTAuMzkwNjI1LCJ5Ijo0MjF9LHsieCI6NDQwLjM5MDYyNSwieSI6NDIxfSx7IngiOjU3MC4zOTA2MjUsInkiOjQyMX0seyJ4Ijo2NTAuOTYwOTM3NSwieSI6NDIxfSx7IngiOjczMS41MzEyNSwieSI6NDIxfSx7IngiOjg2OS42OTUzMTI1LCJ5Ijo0MjF9LHsieCI6MTAwNy44NTkzNzUsInkiOjQyMX0seyJ4IjoxMDY2LjY1NjI1LCJ5Ijo0MjF9LHsieCI6MTE5OC40MDgyMDMxMjUsInkiOjUzOH1d" marker-end="url(#mermaid-svg_flowchart-v2-pointEnd)"/><path d="M129.506,456L147.154,395C164.801,334,200.096,212,221.91,151C243.724,90,252.057,90,260.391,90C268.724,90,277.057,90,285.391,90C293.724,90,302.057,90,327.891,90C353.724,90,397.057,90,440.391,90C483.724,90,527.057,90,562.152,90C597.247,90,624.104,90,650.961,90C677.818,90,704.674,90,721.603,90C738.531,90,745.531,90,749.031,90L752.531,90" id="L_HVIssues_Software_0" class=" edge-thickness-thick edge-pattern-solid edge-thickness-normal edge-pattern-solid flowchart-link" style=";" data-edge="true" data-et="edge" data-id="L_HVIssues_Software_0" data-points="W3sieCI6MTI5LjUwNjQ0MDgzOTY5NDY1LCJ5Ijo0NTZ9LHsieCI6MjM1LjM5MDYyNSwieSI6OTB9LHsieCI6MjYwLjM5MDYyNSwieSI6OTB9LHsieCI6Mjg1LjM5MDYyNSwieSI6OTB9LHsieCI6MzEwLjM5MDYyNSwieSI6OTB9LHsieCI6NDQwLjM5MDYyNSwieSI6OTB9LHsieCI6NTcwLjM5MDYyNSwieSI6OTB9LHsieCI6NjUwLjk2MDkzNzUsInkiOjkwfSx7IngiOjczMS41MzEyNSwieSI6OTB9LHsieCI6NzU2LjUzMTI1LCJ5Ijo5MH1d" marker-end="url(#mermaid-svg_flowchart-v2-pointEnd)"/><path d="M210.391,705.382L214.557,706.152C218.724,706.922,227.057,708.461,235.391,709.23C243.724,710,252.057,710,260.391,710C268.724,710,277.057,710,285.391,710C293.724,710,302.057,710,327.891,710C353.724,710,397.057,710,440.391,710C483.724,710,527.057,710,562.152,710C597.247,710,624.104,710,650.961,710C677.818,710,704.674,710,724.397,710C744.12,710,756.708,710,763.003,710L769.297,710" id="L_HVResolved_Vulnerability_0" class=" edge-thickness-thick edge-pattern-solid edge-thickness-normal edge-pattern-solid flowchart-link" style=";" data-edge="true" data-et="edge" data-id="L_HVResolved_Vulnerability_0" data-points="W3sieCI6MjEwLjM5MDYyNSwieSI6NzA1LjM4MjM5NTM4MjM5NTR9LHsieCI6MjM1LjM5MDYyNSwieSI6NzEwfSx7IngiOjI2MC4zOTA2MjUsInkiOjcxMH0seyJ4IjoyODUuMzkwNjI1LCJ5Ijo3MTB9LHsieCI6MzEwLjM5MDYyNSwieSI6NzEwfSx7IngiOjQ0MC4zOTA2MjUsInkiOjcxMH0seyJ4Ijo1NzAuMzkwNjI1LCJ5Ijo3MTB9LHsieCI6NjUwLjk2MDkzNzUsInkiOjcxMH0seyJ4Ijo3MzEuNTMxMjUsInkiOjcxMH0seyJ4Ijo3NzMuMjk2ODc1LCJ5Ijo3MTB9XQ==" marker-end="url(#mermaid-svg_flowchart-v2-pointEnd)"/><path d="M210.391,689L214.557,689C218.724,689,227.057,689,235.391,689C243.724,689,252.057,689,260.391,689C268.724,689,277.057,689,285.391,689C293.724,689,302.057,689,322.258,703.06C342.458,717.121,374.526,745.242,390.56,759.302L406.594,773.363" id="L_HVResolved_System_0" class=" edge-thickness-thick edge-pattern-solid edge-thickness-normal edge-pattern-solid flowchart-link" style=";" data-edge="true" data-et="edge" data-id="L_HVResolved_System_0" data-points="W3sieCI6MjEwLjM5MDYyNSwieSI6Njg5fSx7IngiOjIzNS4zOTA2MjUsInkiOjY4OX0seyJ4IjoyNjAuMzkwNjI1LCJ5Ijo2ODl9LHsieCI6Mjg1LjM5MDYyNSwieSI6Njg5fSx7IngiOjMxMC4zOTA2MjUsInkiOjY4OX0seyJ4Ijo0MDkuNjAxMTUxMzE1Nzg5NSwieSI6Nzc2fV0=" marker-end="url(#mermaid-svg_flowchart-v2-pointEnd)"/><path d="M210.391,673.398L214.557,672.665C218.724,671.932,227.057,670.466,235.391,669.733C243.724,669,252.057,669,260.391,669C268.724,669,277.057,669,285.391,669C293.724,669,302.057,669,320.193,660.189C338.328,651.378,366.265,633.756,380.234,624.945L394.203,616.134" id="L_HVResolved_Note_0" class=" edge-thickness-thick edge-pattern-solid edge-thickness-normal edge-pattern-solid flowchart-link" style=";" data-edge="true" data-et="edge" data-id="L_HVResolved_Note_0" data-points="W3sieCI6MjEwLjM5MDYyNSwieSI6NjczLjM5NzcxODY4MzQzMjl9LHsieCI6MjM1LjM5MDYyNSwieSI6NjY5fSx7IngiOjI2MC4zOTA2MjUsInkiOjY2OX0seyJ4IjoyODUuMzkwNjI1LCJ5Ijo2Njl9LHsieCI6MzEwLjM5MDYyNSwieSI6NjY5fSx7IngiOjM5Ny41ODU3NDY5NTEyMTk1LCJ5Ijo2MTR9XQ==" marker-end="url(#mermaid-svg_flowchart-v2-pointEnd)"/><path d="M205.055,793L210.111,793C215.167,793,225.279,793,234.501,793C243.724,793,252.057,793,260.391,793C268.724,793,277.057,793,285.391,793C293.724,793,302.057,793,311.184,793.382C320.311,793.763,330.232,794.526,335.192,794.908L340.152,795.289" id="L_HVDomains_System_0" class=" edge-thickness-thick edge-pattern-solid edge-thickness-normal edge-pattern-solid flowchart-link" style=";" data-edge="true" data-et="edge" data-id="L_HVDomains_System_0" data-points="W3sieCI6MjA1LjA1NDY4NzUsInkiOjc5M30seyJ4IjoyMzUuMzkwNjI1LCJ5Ijo3OTN9LHsieCI6MjYwLjM5MDYyNSwieSI6NzkzfSx7IngiOjI4NS4zOTA2MjUsInkiOjc5M30seyJ4IjozMTAuMzkwNjI1LCJ5Ijo3OTN9LHsieCI6MzQ0LjE0MDYyNSwieSI6Nzk1LjU5NjE1Mzg0NjE1Mzh9XQ==" marker-end="url(#mermaid-svg_flowchart-v2-pointEnd)"/><path d="M193.938,897L200.846,897C207.755,897,221.573,897,232.648,897C243.724,897,252.057,897,260.391,897C268.724,897,277.057,897,285.391,897C293.724,897,302.057,897,321.127,886.224C340.197,875.448,370.003,853.896,384.906,843.12L399.809,832.344" id="L_HVHosts_System_0" class=" edge-thickness-thick edge-pattern-solid edge-thickness-normal edge-pattern-solid flowchart-link" style=";" data-edge="true" data-et="edge" data-id="L_HVHosts_System_0" data-points="W3sieCI6MTkzLjkzNzUsInkiOjg5N30seyJ4IjoyMzUuMzkwNjI1LCJ5Ijo4OTd9LHsieCI6MjYwLjM5MDYyNSwieSI6ODk3fSx7IngiOjI4NS4zOTA2MjUsInkiOjg5N30seyJ4IjozMTAuMzkwNjI1LCJ5Ijo4OTd9LHsieCI6NDAzLjA1MDE5OTQ2ODA4NTEsInkiOjgzMH1d" marker-end="url(#mermaid-svg_flowchart-v2-pointEnd)"/><path d="M184.898,1001L193.314,1001C201.729,1001,218.56,1001,231.142,1001C243.724,1001,252.057,1001,260.391,1001C268.724,1001,277.057,1001,285.391,1001C293.724,1001,302.057,1001,324.57,973.057C347.083,945.115,383.776,889.229,402.122,861.286L420.468,833.344" id="L_HVIPs_System_0" class=" edge-thickness-thick edge-pattern-solid edge-thickness-normal edge-pattern-solid flowchart-link" style=";" data-edge="true" data-et="edge" data-id="L_HVIPs_System_0" data-points="W3sieCI6MTg0Ljg5ODQzNzUsInkiOjEwMDF9LHsieCI6MjM1LjM5MDYyNSwieSI6MTAwMX0seyJ4IjoyNjAuMzkwNjI1LCJ5IjoxMDAxfSx7IngiOjI4NS4zOTA2MjUsInkiOjEwMDF9LHsieCI6MzEwLjM5MDYyNSwieSI6MTAwMX0seyJ4Ijo0MjIuNjYzMzUyMjcyNzI3MjUsInkiOjgzMH1d" marker-end="url(#mermaid-svg_flowchart-v2-pointEnd)"/><path d="M459.676,830L478.129,855.833C496.581,881.667,533.486,933.333,565.367,959.167C597.247,985,624.104,985,650.961,985C677.818,985,704.674,985,738.57,944.262C772.466,903.525,813.4,822.049,833.867,781.312L854.334,740.574" id="L_System_Vulnerability_0" class=" edge-thickness-normal edge-pattern-dotted edge-thickness-normal edge-pattern-solid flowchart-link" style=";" data-edge="true" data-et="edge" data-id="L_System_Vulnerability_0" data-points="W3sieCI6NDU5LjY3NjMzOTI4NTcxNDMsInkiOjgzMH0seyJ4Ijo1NzAuMzkwNjI1LCJ5Ijo5ODV9LHsieCI6NjUwLjk2MDkzNzUsInkiOjk4NX0seyJ4Ijo3MzEuNTMxMjUsInkiOjk4NX0seyJ4Ijo4NTYuMTMwMTEzNjM2MzYzNiwieSI6NzM3fV0=" marker-end="url(#mermaid-svg_flowchart-v2-pointEnd)"/><path d="M516.695,776L525.644,772.833C534.594,769.667,552.492,763.333,574.87,760.167C597.247,757,624.104,757,650.961,757C677.818,757,704.674,757,740.063,650.986C775.451,544.972,819.371,332.945,841.331,226.931L863.291,120.917" id="L_System_Software_0" class=" edge-thickness-normal edge-pattern-dotted edge-thickness-normal edge-pattern-solid flowchart-link" style=";" data-edge="true" data-et="edge" data-id="L_System_Software_0" data-points="W3sieCI6NTE2LjY5NDk3MjgyNjA4NywieSI6Nzc2fSx7IngiOjU3MC4zOTA2MjUsInkiOjc1N30seyJ4Ijo2NTAuOTYwOTM3NSwieSI6NzU3fSx7IngiOjczMS41MzEyNSwieSI6NzU3fSx7IngiOjg2NC4xMDI0NjQzOTI4MDM3LCJ5IjoxMTd9XQ==" marker-end="url(#mermaid-svg_flowchart-v2-pointEnd)"/><path d="M966.094,710L973.055,710C980.016,710,993.938,710,1010.698,710C1027.458,710,1047.057,710,1078.353,690.778C1109.65,671.555,1152.643,633.111,1174.139,613.889L1195.636,594.666" id="L_Vulnerability_AttackPattern_0" class=" edge-thickness-normal edge-pattern-dotted edge-thickness-normal edge-pattern-solid flowchart-link" style=";" data-edge="true" data-et="edge" data-id="L_Vulnerability_AttackPattern_0" data-points="W3sieCI6OTY2LjA5Mzc1LCJ5Ijo3MTB9LHsieCI6MTAwNy44NTkzNzUsInkiOjcxMH0seyJ4IjoxMDY2LjY1NjI1LCJ5Ijo3MTB9LHsieCI6MTE5OC42MTc4ODc5MzEwMzQ0LCJ5Ijo1OTJ9XQ==" marker-end="url(#mermaid-svg_flowchart-v2-pointEnd)"/></g><g class="edgeLabels"><g class="edgeLabel"><g class="label" data-id="L_HVIssues_Vulnerability_0" transform="translate(0, 0)"><foreignObject width="0" height="0"><div xmlns="http://www.w3.org/1999/xhtml" class="labelBkg" style="display: table-cell; white-space: nowrap; line-height: 1.5; max-width: 200px; text-align: center;"><span class="edgeLabel "></span></div></foreignObject></g></g><g class="edgeLabel"><g class="label" data-id="L_HVIssues_System_0" transform="translate(0, 0)"><foreignObject width="0" height="0"><div xmlns="http://www.w3.org/1999/xhtml" class="labelBkg" style="display: table-cell; white-space: nowrap; line-height: 1.5; max-width: 200px; text-align: center;"><span class="edgeLabel "></span></div></foreignObject></g></g><g class="edgeLabel"><g class="label" data-id="L_HVIssues_Note_0" transform="translate(0, 0)"><foreignObject width="0" height="0"><div xmlns="http://www.w3.org/1999/xhtml" class="labelBkg" style="display: table-cell; white-space: nowrap; line-height: 1.5; max-width: 200px; text-align: center;"><span class="edgeLabel "></span></div></foreignObject></g></g><g class="edgeLabel"><g class="label" data-id="L_HVIssues_CaseIncident_0" transform="translate(0, 0)"><foreignObject width="0" height="0"><div xmlns="http://www.w3.org/1999/xhtml" class="labelBkg" style="display: table-cell; white-space: nowrap; line-height: 1.5; max-width: 200px; text-align: center;"><span class="edgeLabel "></span></div></foreignObject></g></g><g class="edgeLabel"><g class="label" data-id="L_HVIssues_ExtRef_0" transform="translate(0, 0)"><foreignObject width="0" height="0"><div xmlns="http://www.w3.org/1999/xhtml" class="labelBkg" style="display: table-cell; white-space: nowrap; line-height: 1.5; max-width: 200px; text-align: center;"><span class="edgeLabel "></span></div></foreignObject></g></g><g class="edgeLabel" transform="translate(650.9609375, 421)"><g class="label" data-id="L_HVIssues_AttackPattern_0" transform="translate(-55.5703125, -12)"><foreignObject width="111.140625" height="24"><div xmlns="http://www.w3.org/1999/xhtml" class="labelBkg" style="display: table-cell; white-space: nowrap; line-height: 1.5; max-width: 200px; text-align: center;"><span class="edgeLabel "><p>CWE extraction</p></span></div></foreignObject></g></g><g class="edgeLabel" transform="translate(440.390625, 90)"><g class="label" data-id="L_HVIssues_Software_0" transform="translate(-44.921875, -12)"><foreignObject width="89.84375" height="24"><div xmlns="http://www.w3.org/1999/xhtml" class="labelBkg" style="display: table-cell; white-space: nowrap; line-height: 1.5; max-width: 200px; text-align: center;"><span class="edgeLabel "><p>technologies</p></span></div></foreignObject></g></g><g class="edgeLabel"><g class="label" data-id="L_HVResolved_Vulnerability_0" transform="translate(0, 0)"><foreignObject width="0" height="0"><div xmlns="http://www.w3.org/1999/xhtml" class="labelBkg" style="display: table-cell; white-space: nowrap; line-height: 1.5; max-width: 200px; text-align: center;"><span class="edgeLabel "></span></div></foreignObject></g></g><g class="edgeLabel"><g class="label" data-id="L_HVResolved_System_0" transform="translate(0, 0)"><foreignObject width="0" height="0"><div xmlns="http://www.w3.org/1999/xhtml" class="labelBkg" style="display: table-cell; white-space: nowrap; line-height: 1.5; max-width: 200px; text-align: center;"><span class="edgeLabel "></span></div></foreignObject></g></g><g class="edgeLabel"><g class="label" data-id="L_HVResolved_Note_0" transform="translate(0, 0)"><foreignObject width="0" height="0"><div xmlns="http://www.w3.org/1999/xhtml" class="labelBkg" style="display: table-cell; white-space: nowrap; line-height: 1.5; max-width: 200px; text-align: center;"><span class="edgeLabel "></span></div></foreignObject></g></g><g class="edgeLabel"><g class="label" data-id="L_HVDomains_System_0" transform="translate(0, 0)"><foreignObject width="0" height="0"><div xmlns="http://www.w3.org/1999/xhtml" class="labelBkg" style="display: table-cell; white-space: nowrap; line-height: 1.5; max-width: 200px; text-align: center;"><span class="edgeLabel "></span></div></foreignObject></g></g><g class="edgeLabel"><g class="label" data-id="L_HVHosts_System_0" transform="translate(0, 0)"><foreignObject width="0" height="0"><div xmlns="http://www.w3.org/1999/xhtml" class="labelBkg" style="display: table-cell; white-space: nowrap; line-height: 1.5; max-width: 200px; text-align: center;"><span class="edgeLabel "></span></div></foreignObject></g></g><g class="edgeLabel"><g class="label" data-id="L_HVIPs_System_0" transform="translate(0, 0)"><foreignObject width="0" height="0"><div xmlns="http://www.w3.org/1999/xhtml" class="labelBkg" style="display: table-cell; white-space: nowrap; line-height: 1.5; max-width: 200px; text-align: center;"><span class="edgeLabel "></span></div></foreignObject></g></g><g class="edgeLabel" transform="translate(650.9609375, 985)"><g class="label" data-id="L_System_Vulnerability_0" transform="translate(-12.8984375, -12)"><foreignObject width="25.796875" height="24"><div xmlns="http://www.w3.org/1999/xhtml" class="labelBkg" style="display: table-cell; white-space: nowrap; line-height: 1.5; max-width: 200px; text-align: center;"><span class="edgeLabel "><p>has</p></span></div></foreignObject></g></g><g class="edgeLabel" transform="translate(650.9609375, 757)"><g class="label" data-id="L_System_Software_0" transform="translate(-33.796875, -12)"><foreignObject width="67.59375" height="24"><div xmlns="http://www.w3.org/1999/xhtml" class="labelBkg" style="display: table-cell; white-space: nowrap; line-height: 1.5; max-width: 200px; text-align: center;"><span class="edgeLabel "><p>related-to</p></span></div></foreignObject></g></g><g class="edgeLabel" transform="translate(1066.65625, 710)"><g class="label" data-id="L_Vulnerability_AttackPattern_0" transform="translate(-33.796875, -12)"><foreignObject width="67.59375" height="24"><div xmlns="http://www.w3.org/1999/xhtml" class="labelBkg" style="display: table-cell; white-space: nowrap; line-height: 1.5; max-width: 200px; text-align: center;"><span class="edgeLabel "><p>related-to</p></span></div></foreignObject></g></g></g><g class="nodes"><g class="node default  " id="flowchart-HVIssues-0" transform="translate(121.6953125, 483)"><rect class="basic label-container" style="" x="-84.2421875" y="-27" width="168.484375" height="54"/><g class="label" style="" transform="translate(-54.2421875, -12)"><rect/><foreignObject width="108.484375" height="24"><div xmlns="http://www.w3.org/1999/xhtml" style="display: table-cell; white-space: nowrap; line-height: 1.5; max-width: 200px; text-align: center;"><span class="nodeLabel "><p>Security Issues</p></span></div></foreignObject></g></g><g class="node default  " id="flowchart-HVResolved-1" transform="translate(121.6953125, 689)"><rect class="basic label-container" style="" x="-88.6953125" y="-27" width="177.390625" height="54"/><g class="label" style="" transform="translate(-58.6953125, -12)"><rect/><foreignObject width="117.390625" height="24"><div xmlns="http://www.w3.org/1999/xhtml" style="display: table-cell; white-space: nowrap; line-height: 1.5; max-width: 200px; text-align: center;"><span class="nodeLabel "><p>Resolved Issues</p></span></div></foreignObject></g></g><g class="node default  " id="flowchart-HVDomains-2" transform="translate(121.6953125, 793)"><rect class="basic label-container" style="" x="-83.359375" y="-27" width="166.71875" height="54"/><g class="label" style="" transform="translate(-53.359375, -12)"><rect/><foreignObject width="106.71875" height="24"><div xmlns="http://www.w3.org/1999/xhtml" style="display: table-cell; white-space: nowrap; line-height: 1.5; max-width: 200px; text-align: center;"><span class="nodeLabel "><p>Domain Assets</p></span></div></foreignObject></g></g><g class="node default  " id="flowchart-HVHosts-3" transform="translate(121.6953125, 897)"><rect class="basic label-container" style="" x="-72.2421875" y="-27" width="144.484375" height="54"/><g class="label" style="" transform="translate(-42.2421875, -12)"><rect/><foreignObject width="84.484375" height="24"><div xmlns="http://www.w3.org/1999/xhtml" style="display: table-cell; white-space: nowrap; line-height: 1.5; max-width: 200px; text-align: center;"><span class="nodeLabel "><p>Host Assets</p></span></div></foreignObject></g></g><g class="node default  " id="flowchart-HVIPs-4" transform="translate(121.6953125, 1001)"><rect class="basic label-container" style="" x="-63.203125" y="-27" width="126.40625" height="54"/><g class="label" style="" transform="translate(-33.203125, -12)"><rect/><foreignObject width="66.40625" height="24"><div xmlns="http://www.w3.org/1999/xhtml" style="display: table-cell; white-space: nowrap; line-height: 1.5; max-width: 200px; text-align: center;"><span class="nodeLabel "><p>IP Assets</p></span></div></foreignObject></g></g><g class="node default  " id="flowchart-Vulnerability-5" transform="translate(869.6953125, 710)"><rect class="basic label-container" style="" x="-96.3984375" y="-27" width="192.796875" height="54"/><g class="label" style="" transform="translate(-66.3984375, -12)"><rect/><foreignObject width="132.796875" height="24"><div xmlns="http://www.w3.org/1999/xhtml" style="display: table-cell; white-space: nowrap; line-height: 1.5; max-width: 200px; text-align: center;"><span class="nodeLabel "><p>Vulnerability / CVE</p></span></div></foreignObject></g></g><g class="node default  " id="flowchart-CaseIncident-6" transform="translate(440.390625, 483)"><rect class="basic label-container" style="" x="-76.6953125" y="-27" width="153.390625" height="54"/><g class="label" style="" transform="translate(-46.6953125, -12)"><rect/><foreignObject width="93.390625" height="24"><div xmlns="http://www.w3.org/1999/xhtml" style="display: table-cell; white-space: nowrap; line-height: 1.5; max-width: 200px; text-align: center;"><span class="nodeLabel "><p>CaseIncident</p></span></div></foreignObject></g></g><g class="node default  " id="flowchart-System-7" transform="translate(440.390625, 803)"><rect class="basic label-container" style="" x="-96.25" y="-27" width="192.5" height="54"/><g class="label" style="" transform="translate(-66.25, -12)"><rect/><foreignObject width="132.5" height="24"><div xmlns="http://www.w3.org/1999/xhtml" style="display: table-cell; white-space: nowrap; line-height: 1.5; max-width: 200px; text-align: center;"><span class="nodeLabel "><p>System / per asset</p></span></div></foreignObject></g></g><g class="node default  " id="flowchart-AttackPattern-8" transform="translate(1228.8125, 565)"><rect class="basic label-container" style="" x="-103.359375" y="-27" width="206.71875" height="54"/><g class="label" style="" transform="translate(-73.359375, -12)"><rect/><foreignObject width="146.71875" height="24"><div xmlns="http://www.w3.org/1999/xhtml" style="display: table-cell; white-space: nowrap; line-height: 1.5; max-width: 200px; text-align: center;"><span class="nodeLabel "><p>AttackPattern / CWE</p></span></div></foreignObject></g></g><g class="node default  " id="flowchart-Note-9" transform="translate(440.390625, 587)"><rect class="basic label-container" style="" x="-97.59375" y="-27" width="195.1875" height="54"/><g class="label" style="" transform="translate(-67.59375, -12)"><rect/><foreignObject width="135.1875" height="24"><div xmlns="http://www.w3.org/1999/xhtml" style="display: table-cell; white-space: nowrap; line-height: 1.5; max-width: 200px; text-align: center;"><span class="nodeLabel "><p>Note / issue details</p></span></div></foreignObject></g></g><g class="node default  " id="flowchart-Software-10" transform="translate(869.6953125, 90)"><rect class="basic label-container" style="" x="-113.1640625" y="-27" width="226.328125" height="54"/><g class="label" style="" transform="translate(-83.1640625, -12)"><rect/><foreignObject width="166.328125" height="24"><div xmlns="http://www.w3.org/1999/xhtml" style="display: table-cell; white-space: nowrap; line-height: 1.5; max-width: 200px; text-align: center;"><span class="nodeLabel "><p>Software / technologies</p></span></div></foreignObject></g></g><g class="node default  " id="flowchart-Identity-11" transform="translate(440.390625, 184)"><rect class="basic label-container" style="" x="-105" y="-27" width="210" height="54"/><g class="label" style="" transform="translate(-75, -12)"><rect/><foreignObject width="150" height="24"><div xmlns="http://www.w3.org/1999/xhtml" style="display: table-cell; white-space: nowrap; line-height: 1.5; max-width: 200px; text-align: center;"><span class="nodeLabel "><p>Identity / HackerView</p></span></div></foreignObject></g></g><g class="node default  " id="flowchart-ExtRef-12" transform="translate(440.390625, 288)"><rect class="basic label-container" style="" x="-96.2578125" y="-27" width="192.515625" height="54"/><g class="label" style="" transform="translate(-66.2578125, -12)"><rect/><foreignObject width="132.515625" height="24"><div xmlns="http://www.w3.org/1999/xhtml" style="display: table-cell; white-space: nowrap; line-height: 1.5; max-width: 200px; text-align: center;"><span class="nodeLabel "><p>ExternalReference</p></span></div></foreignObject></g></g></g></g></g></svg>